<svg width="476" height="480" viewBox="0 0 476 480" fill="none" xmlns="http://www.w3.org/2000/svg">
<path d="M364.008 383.689C392.577 383.689 415.737 364.252 415.737 340.274C415.737 316.297 392.577 296.859 364.008 296.859C335.44 296.859 312.28 316.297 312.28 340.274C312.28 364.252 335.44 383.689 364.008 383.689Z" fill="white"/>
<path d="M364.008 384.224C353.651 384.226 343.525 381.651 334.911 376.824C326.298 371.996 319.584 365.133 315.618 357.103C311.652 349.072 310.612 340.235 312.631 331.709C314.65 323.183 319.636 315.35 326.959 309.203C334.281 303.055 343.612 298.868 353.77 297.171C363.928 295.474 374.458 296.343 384.027 299.669C393.597 302.995 401.776 308.628 407.531 315.856C413.285 323.084 416.357 331.582 416.357 340.275C416.344 351.925 410.825 363.095 401.011 371.334C391.197 379.574 377.89 384.209 364.008 384.224ZM364.008 297.408C353.903 297.408 344.024 299.923 335.622 304.635C327.219 309.348 320.671 316.046 316.804 323.882C312.938 331.718 311.927 340.34 313.9 348.659C315.873 356.977 320.74 364.618 327.887 370.614C335.034 376.61 344.139 380.693 354.051 382.346C363.963 383.999 374.236 383.148 383.571 379.901C392.907 376.653 400.885 371.155 406.497 364.101C412.109 357.048 415.103 348.756 415.1 340.275C415.087 328.907 409.699 318.007 400.12 309.97C390.541 301.933 377.553 297.415 364.008 297.408Z" fill="#1DF7D2"/>
<path d="M372.336 315.662H355.681V364.888H372.336V315.662Z" fill="#1DF7D2"/>
<path d="M393.334 347.277V333.299H334.683V347.277H393.334Z" fill="#1DF7D2"/>
<path d="M13.602 12.1008L12.4917 11.1004C20.0502 5.10347 29.6413 1.22471 39.9397 0L40.1683 1.37042C30.2019 2.55009 20.9185 6.29974 13.602 12.1008Z" fill="#1DF7D2"/>
<path d="M1.51854 27.0789L0 26.5856C1.64828 23.0944 3.84482 19.8037 6.53134 16.8008L7.83761 17.623C5.24698 20.5291 3.12244 23.7083 1.51854 27.0789Z" fill="#1DF7D2"/>
<path d="M47.0745 79.5806C71.8196 79.5806 91.8795 62.7446 91.8795 41.9763C91.8795 21.2081 71.8196 4.37207 47.0745 4.37207C22.3294 4.37207 2.26953 21.2081 2.26953 41.9763C2.26953 62.7446 22.3294 79.5806 47.0745 79.5806Z" fill="#1DF7D2"/>
<path d="M73.8367 25.038C72.111 23.5345 70.0456 22.3348 67.761 21.5091C65.4765 20.6834 63.0188 20.2483 60.5315 20.2292C58.0442 20.21 55.5774 20.6073 53.2752 21.3977C50.973 22.1881 48.8817 23.3558 47.1235 24.8325C45.3667 23.3562 43.2768 22.1888 40.9759 21.3985C38.6751 20.6083 36.2096 20.2112 33.7236 20.2303C31.2377 20.2494 28.7813 20.6845 26.4981 21.51C24.2149 22.3355 22.1509 23.5349 20.4266 25.038C17.0476 28.1057 15.2272 32.1583 15.3522 36.3347C15.4772 40.5111 17.5378 44.4819 21.0961 47.4033L42.323 65.2187C42.9598 65.7532 43.7158 66.1772 44.5479 66.4665C45.38 66.7558 46.2718 66.9047 47.1725 66.9047C48.0731 66.9047 48.965 66.7558 49.7971 66.4665C50.6291 66.1772 51.3852 65.7532 52.022 65.2187L73.2489 47.4033C76.7959 44.4728 78.8416 40.497 78.9514 36.3208C79.0611 32.1445 77.2263 28.0969 73.8367 25.038Z" fill="white"/>
<path d="M47.0749 58.4071C46.7458 58.3976 46.4278 58.3049 46.1626 58.141C45.8974 57.9772 45.6975 57.7499 45.589 57.4889L36.1349 34.2877L32.1835 43.9903C32.0712 44.2599 31.8613 44.4934 31.5832 44.658C31.305 44.8226 30.9726 44.9102 30.6322 44.9085H14.8101C14.377 44.9085 13.9617 44.7641 13.6555 44.5071C13.3493 44.2501 13.1772 43.9015 13.1772 43.5381C13.1772 43.1746 13.3493 42.826 13.6555 42.569C13.9617 42.312 14.377 42.1676 14.8101 42.1676H29.5056L34.6327 29.6009C34.7438 29.3316 34.952 29.0981 35.2286 28.9328C35.5052 28.7675 35.8362 28.6787 36.1757 28.6787C36.5152 28.6787 36.8463 28.7675 37.1229 28.9328C37.3994 29.0981 37.6077 29.3316 37.7188 29.6009L47.3362 53.2132L56.676 34.7537C56.794 34.5184 56.988 34.3155 57.2361 34.1678C57.4843 34.0201 57.7766 33.9335 58.0802 33.9177C58.386 33.903 58.6905 33.9607 58.959 34.0843C59.2275 34.2079 59.4492 34.3923 59.5987 34.6166L64.5299 42.1539H79.405C79.8381 42.1539 80.2534 42.2983 80.5596 42.5553C80.8658 42.8123 81.0379 43.1609 81.0379 43.5244C81.0379 43.8878 80.8658 44.2364 80.5596 44.4934C80.2534 44.7504 79.8381 44.8948 79.405 44.8948H63.5829C63.2908 44.8968 63.0034 44.833 62.7506 44.7101C62.4979 44.5872 62.2891 44.4096 62.146 44.1959L58.2761 38.3853L48.5771 57.5711C48.4521 57.8188 48.243 58.0302 47.9759 58.1788C47.7088 58.3275 47.3954 58.4069 47.0749 58.4071Z" fill="#1DF7D2"/>
<path d="M295.673 431.627H125.254C122.477 431.653 119.724 431.194 117.17 430.279C114.616 429.363 112.317 428.012 110.419 426.311C108.521 424.609 107.065 422.595 106.145 420.396C105.224 418.197 104.859 415.862 105.072 413.538L132.618 70.9335C133.099 66.0407 135.731 61.4726 140 58.1169C144.27 54.7612 149.874 52.8575 155.723 52.7755H326.174C328.959 52.7488 331.719 53.2099 334.279 54.1293C336.839 55.0488 339.142 56.4063 341.041 58.1152C342.941 59.8241 344.395 61.8467 345.31 64.0539C346.225 66.2611 346.581 68.6042 346.356 70.9335L318.761 413.538C318.265 418.417 315.629 422.969 311.363 426.31C307.098 429.652 301.507 431.547 295.673 431.627Z" fill="#263238"/>
<path d="M333.457 192.297H329.162C328.385 192.305 327.614 192.176 326.899 191.92C326.184 191.663 325.541 191.284 325.01 190.807C324.48 190.329 324.074 189.764 323.819 189.148C323.564 188.531 323.465 187.877 323.529 187.226L328.803 121.734C328.926 120.364 329.657 119.083 330.851 118.144C332.045 117.205 333.616 116.677 335.253 116.663H339.547C340.325 116.656 341.096 116.784 341.811 117.041C342.526 117.297 343.169 117.676 343.699 118.154C344.229 118.631 344.635 119.196 344.89 119.813C345.145 120.429 345.244 121.084 345.18 121.734L339.906 187.226C339.784 188.596 339.053 189.877 337.858 190.816C336.664 191.755 335.093 192.283 333.457 192.297Z" fill="#263238"/>
<path d="M130.136 148.608H125.858C125.225 148.615 124.597 148.512 124.014 148.305C123.432 148.098 122.906 147.791 122.472 147.405C122.037 147.018 121.703 146.56 121.491 146.06C121.278 145.559 121.192 145.027 121.237 144.497L123.148 120.844C123.268 119.733 123.873 118.699 124.847 117.941C125.82 117.182 127.093 116.752 128.422 116.732H132.716C133.347 116.729 133.972 116.836 134.552 117.044C135.132 117.253 135.654 117.56 136.086 117.946C136.518 118.332 136.851 118.788 137.063 119.287C137.276 119.785 137.363 120.315 137.321 120.844L135.41 144.497C135.293 145.609 134.689 146.644 133.715 147.404C132.741 148.163 131.466 148.592 130.136 148.608Z" fill="#1DF7D2"/>
<path d="M126.74 190.845H122.446C121.814 190.85 121.188 190.745 120.607 190.537C120.026 190.329 119.503 190.022 119.07 189.636C118.638 189.25 118.305 188.792 118.094 188.293C117.882 187.793 117.796 187.262 117.841 186.733L119.752 163.08C119.872 161.97 120.477 160.936 121.451 160.177C122.424 159.418 123.697 158.988 125.026 158.969H129.353C129.984 158.966 130.609 159.072 131.188 159.281C131.768 159.489 132.291 159.796 132.723 160.182C133.155 160.568 133.488 161.024 133.7 161.523C133.912 162.022 134 162.552 133.957 163.08L132.047 186.733C131.929 187.85 131.321 188.889 130.34 189.649C129.358 190.409 128.075 190.835 126.74 190.845Z" fill="#1DF7D2"/>
<path d="M292.065 431.627H121.646C118.869 431.653 116.116 431.194 113.562 430.279C111.008 429.363 108.709 428.012 106.811 426.311C104.913 424.609 103.457 422.595 102.537 420.396C101.616 418.197 101.251 415.862 101.464 413.538L129.026 70.9334C129.524 66.0387 132.174 61.4745 136.459 58.1285C140.745 54.7826 146.36 52.894 152.212 52.8301H322.566C325.344 52.8041 328.099 53.2638 330.654 54.1799C333.209 55.096 335.509 56.4485 337.407 58.1514C339.306 59.8542 340.761 61.8701 341.68 64.0707C342.6 66.2713 342.963 68.6084 342.748 70.9334L315.169 413.538C314.672 418.419 312.034 422.973 307.765 426.315C303.497 429.657 297.902 431.55 292.065 431.627Z" fill="#1DF7D2"/>
<path opacity="0.3" d="M103.26 409.701L130.169 75.374H340.903L313.994 409.701H103.26Z" fill="white"/>
<path opacity="0.1" d="M186.453 409.701L261.662 75.374H308.867L233.658 409.701H186.453Z" fill="white"/>
<path opacity="0.1" d="M150.792 409.701L226 75.374H249.921L174.713 409.701H150.792Z" fill="white"/>
<path d="M216.122 61.2308H257.22C257.563 61.2258 257.904 61.2815 258.22 61.394C258.535 61.5066 258.819 61.6736 259.053 61.8842C259.287 62.0948 259.466 62.3443 259.578 62.6165C259.69 62.8888 259.732 63.1777 259.702 63.4646C259.646 64.0684 259.323 64.6329 258.798 65.0483C258.273 65.4637 257.583 65.7003 256.861 65.712H215.763C215.419 65.715 215.078 65.6576 214.762 65.5435C214.446 65.4294 214.162 65.2611 213.929 65.0495C213.695 64.8378 213.517 64.5875 213.405 64.3145C213.293 64.0416 213.251 63.7521 213.281 63.4646C213.338 62.8621 213.66 62.2991 214.186 61.886C214.711 61.4728 215.402 61.2391 216.122 61.2308Z" fill="white"/>
<path d="M207.565 464.586L193.164 465.737L187.971 437.849L202.373 436.685L207.565 464.586Z" fill="#FFB573"/>
<path d="M191.515 459.829L206.602 455.896C206.862 455.82 207.147 455.832 207.397 455.929C207.647 456.026 207.842 456.201 207.941 456.417L212.84 466.462C212.962 466.731 213.015 467.019 212.998 467.306C212.981 467.594 212.893 467.875 212.739 468.133C212.586 468.39 212.371 468.619 212.107 468.803C211.843 468.987 211.537 469.123 211.207 469.203C205.753 470.573 200.561 470.888 193.981 473.314C186.29 476.055 183.073 479.728 174.795 479.728C168.868 479.728 167.529 475.164 170.043 474.534C181.473 471.629 179.971 469.244 188.266 461.748C189.128 460.879 190.249 460.217 191.515 459.829Z" fill="#263238"/>
<path opacity="0.2" d="M187.971 437.849L190.649 452.239L205.067 451.074L202.389 436.685L187.971 437.849Z" fill="black"/>
<path d="M198.389 85.4598C179.497 83.596 160.703 84.8431 141.844 87.9128C138.701 88.4248 135.834 89.7634 133.659 91.7346C131.483 93.7057 130.112 96.2071 129.744 98.8761C127.703 114.033 125.368 148.006 134.48 198.684L211.68 193.202C211.827 184.006 204.038 142.113 210.472 98.6432C210.735 97.1087 210.629 95.5455 210.161 94.0458C209.693 92.5461 208.871 91.1403 207.745 89.9115C206.619 88.6827 205.21 87.6556 203.603 86.891C201.997 86.1264 200.223 85.6398 198.389 85.4598Z" fill="white"/>
<path d="M153.437 98.4508L156.197 103.083C156.325 103.317 156.53 103.515 156.787 103.656C157.044 103.796 157.343 103.873 157.65 103.878L160.638 104.015C161.171 104.034 161.696 103.899 162.124 103.631L167.267 100.411L160.915 96.5322L153.437 98.4508Z" fill="#263238"/>
<path d="M160.736 102.685C159.647 102.262 158.414 102.179 157.258 102.452C154.825 109.647 152.164 130.299 151.886 139.453C159.267 157.502 161.683 159.324 161.683 159.324L165.422 137.603C165.422 137.603 161.226 115.389 160.736 102.685Z" fill="#263238"/>
<path d="M182.044 54.2139C180.281 63.149 178.778 79.4707 186.42 85.2401C180.819 90.1736 173.488 95.8882 160.915 96.5323C148.342 97.1764 150.285 89.8721 153.469 85.9664C165.209 83.3352 164.638 75.9898 162.336 69.124L182.044 54.2139Z" fill="#FFB573"/>
<path d="M189.62 84.4591C188.73 84.1368 187.806 83.8844 186.861 83.7053C186.629 83.654 186.384 83.6677 186.163 83.7444C185.942 83.8212 185.757 83.9567 185.636 84.1302C184.428 85.8569 180.738 93.5723 160.915 96.5324C164.181 98.1495 168.508 103.165 170.369 105.577C176.313 102.987 191.776 95.2442 190.306 85.2265C190.276 85.061 190.198 84.9043 190.078 84.7704C189.958 84.6365 189.801 84.5296 189.62 84.4591Z" fill="#F5F5F5"/>
<path d="M153.584 86.3777C153.626 86.2218 153.62 86.0596 153.569 85.9058C153.517 85.752 153.42 85.6116 153.287 85.4972C153.154 85.3828 152.989 85.2982 152.807 85.2509C152.625 85.2036 152.432 85.1953 152.245 85.2266C151.559 85.3384 150.882 85.4895 150.22 85.6788C150.067 85.729 149.924 85.7983 149.796 85.8844C148.277 87.0629 139.999 97.0944 147.755 105.207C149.388 103.001 155.021 97.9989 160.915 96.5325C155.331 94.4221 152.588 90.489 153.584 86.3777Z" fill="#F5F5F5"/>
<path opacity="0.2" d="M174.01 60.2979L162.352 69.1233C162.914 70.7174 163.308 72.3499 163.528 74.002C168.034 73.3579 174.092 69.0685 174.419 65.0943C174.639 63.4881 174.501 61.8614 174.01 60.2979Z" fill="black"/>
<path d="M158.433 27.2031C148.375 30.5058 147.722 37.4401 148.636 45.0185C149.551 52.5969 159.38 47.5812 161.568 42.8395C163.756 38.0979 172.361 22.6259 158.433 27.2031Z" fill="#263238"/>
<path d="M190.519 42.3196C187.727 54.2559 186.796 61.3409 178.665 66.8363C166.402 75.0588 149.796 67.9601 148.326 55.6537C147.004 44.567 151.788 26.8749 166.435 23.4215C169.629 22.6322 173.013 22.556 176.253 23.2005C179.493 23.8451 182.476 25.1879 184.909 27.0964C187.341 29.005 189.138 31.4131 190.122 34.0829C191.106 36.7527 191.243 39.5918 190.519 42.3196Z" fill="#FFB573"/>
<path d="M189.931 52.1994C177.962 52.7339 180.493 47.033 182.665 43.7577C184.836 40.4824 180.412 35.0692 183.302 32.2599C178.142 33.9866 172.705 32.5614 165.798 28.5323C160.442 25.3941 153.731 37.9334 147.2 31.6432C141.028 25.7093 146.759 16.7604 161.585 15.3215C176.411 13.8826 179.105 22.6806 188.837 21.8995C198.569 21.1184 195.189 27.8471 193.278 29.2175C201.442 29.6698 205.9 36.2204 189.931 52.1994Z" fill="#263238"/>
<path d="M191.4 30.0529C193.273 29.1908 194.837 27.9245 195.931 26.3849C197.025 24.8453 197.608 23.0884 197.621 21.2959C200.855 26.0512 200.512 31.4507 191.4 30.0529Z" fill="#263238"/>
<path d="M160.376 55.0645C161.677 55.2535 163.01 55.2198 164.296 54.9655C165.581 54.7111 166.791 54.2414 167.855 53.5845C167.887 53.5588 167.912 53.528 167.93 53.4939C167.947 53.4597 167.956 53.4229 167.956 53.3857C167.956 53.3486 167.947 53.3118 167.93 53.2776C167.912 53.2435 167.887 53.2126 167.855 53.187C167.791 53.1359 167.706 53.1074 167.618 53.1074C167.53 53.1074 167.445 53.1359 167.381 53.187C166.19 53.8955 164.82 54.362 163.378 54.5499C161.935 54.7378 160.461 54.6419 159.07 54.2697C158.981 54.2511 158.888 54.2604 158.806 54.2957C158.725 54.331 158.662 54.39 158.629 54.4615C158.604 54.5342 158.613 54.6124 158.656 54.6791C158.699 54.7458 158.771 54.7956 158.858 54.8178C159.354 54.938 159.862 55.0206 160.376 55.0645Z" fill="#263238"/>
<path d="M193.408 55.8587C191.173 58.2768 187.895 59.8615 184.281 60.2714C179.529 60.7922 177.945 57.0783 179.938 53.6112C181.75 50.4866 186.469 46.4576 190.845 47.5402C195.221 48.6229 196.152 52.8437 193.408 55.8587Z" fill="#FFB573"/>
<path d="M188.69 315.374C189.261 279.592 194.715 194.366 194.715 194.366L134.529 198.628C134.529 198.628 146.497 286.458 153.715 322.966C161.226 360.913 184.265 449.812 184.265 449.812L208.757 448.058C208.757 448.058 199.81 343.043 188.69 315.374Z" fill="#263238"/>
<path d="M182.795 450.374L211.843 448.305L210.701 440.438L180.428 442.138L182.795 450.374Z" fill="#1DF7D2"/>
<path d="M169.063 43.0314C168.917 44.0044 168.165 44.7444 167.431 44.6759C166.696 44.6074 166.19 43.7577 166.353 42.771C166.516 41.7843 167.251 41.058 167.986 41.1265C168.721 41.1951 169.227 42.0584 169.063 43.0314Z" fill="#263238"/>
<path d="M155.74 42.1544C155.593 43.1411 154.842 43.8674 154.107 43.7989C153.372 43.7303 152.866 42.8807 153.029 41.9077C153.193 40.9347 153.927 40.1947 154.662 40.2632C155.397 40.3317 155.903 41.1265 155.74 42.1544Z" fill="#263238"/>
<path d="M159.494 43.3057C157.528 45.8416 155.166 48.146 152.473 50.1578C154.204 51.6789 157.78 51.2678 157.78 51.2678L159.494 43.3057Z" fill="#ED893E"/>
<path opacity="0.4" d="M147.314 42.4014C147.069 43.9636 148.947 45.2655 151.543 45.5396C154.139 45.8137 156.539 44.6214 156.768 43.0592" fill="#1DF7D2"/>
<path opacity="0.4" d="M162.744 43.8535C162.385 45.4021 164.197 46.7999 166.745 47.211C169.292 47.6222 171.79 46.5258 172.133 44.991" fill="#1DF7D2"/>
<path d="M167.757 47.6358C167.463 47.6494 167.169 47.6494 166.875 47.6358C165.62 47.5098 164.441 47.0651 163.495 46.3613C163.082 46.0653 162.76 45.6905 162.556 45.2685C162.351 44.8464 162.27 44.3894 162.319 43.9357C161.491 43.6328 160.608 43.4476 159.707 43.3875C158.801 43.1977 157.853 43.1977 156.947 43.3875C156.719 45.0594 154.237 46.2105 151.461 45.9228C150.205 45.8076 149.024 45.3669 148.081 44.662C147.67 44.3645 147.35 43.9896 147.145 43.5679C146.941 43.1462 146.859 42.6899 146.905 42.2363L147.689 42.3186C147.656 42.669 147.723 43.0209 147.885 43.3451C148.047 43.6693 148.299 43.9564 148.62 44.1823C149.442 44.7899 150.469 45.1682 151.559 45.2649C153.91 45.5253 156 44.6072 156.212 43.2367C156.327 42.4693 158.221 42.5241 159.788 42.6886C161.356 42.853 163.217 43.223 163.054 43.9768C163.02 44.3273 163.086 44.6796 163.248 45.004C163.41 45.3284 163.663 45.6153 163.985 45.8405C164.817 46.44 165.841 46.8218 166.929 46.9387C168.017 47.0556 169.122 46.9025 170.108 46.4983C170.488 46.3497 170.82 46.1265 171.076 45.8474C171.332 45.5683 171.504 45.2416 171.577 44.8949V44.566L191.727 46.745L191.629 47.4028L172.231 45.3061C172.09 45.6875 171.858 46.0409 171.549 46.3448C171.24 46.6487 170.861 46.8968 170.434 47.0739C169.609 47.4405 168.69 47.6333 167.757 47.6358Z" fill="#263238"/>
<path d="M174.19 38.7293C174.306 38.7295 174.42 38.7009 174.517 38.6471C174.675 38.5696 174.792 38.443 174.84 38.2944C174.889 38.1458 174.867 37.9871 174.778 37.8522C174.272 37.0552 173.539 36.3754 172.645 35.8733C171.75 35.3712 170.722 35.0624 169.651 34.9743C169.467 34.9668 169.287 35.02 169.15 35.1225C169.013 35.225 168.929 35.3686 168.916 35.5225C168.907 35.673 168.969 35.8204 169.088 35.9331C169.207 36.0458 169.374 36.1149 169.553 36.1255C170.4 36.209 171.21 36.4648 171.913 36.8708C172.616 37.2768 173.19 37.8207 173.586 38.4552C173.648 38.5424 173.736 38.6139 173.843 38.6622C173.949 38.7105 174.069 38.7336 174.19 38.7293Z" fill="#263238"/>
<path d="M151.429 37.1795C151.542 37.1888 151.656 37.1749 151.761 37.1391C151.866 37.1033 151.96 37.0466 152.033 36.9739C152.561 36.3936 153.244 35.9252 154.026 35.6063C154.809 35.2874 155.67 35.1269 156.54 35.1375C156.63 35.1451 156.721 35.1376 156.807 35.1154C156.894 35.0933 156.975 35.057 157.044 35.0086C157.114 34.9601 157.172 34.9006 157.214 34.8333C157.256 34.7661 157.282 34.6925 157.291 34.6168C157.302 34.5429 157.296 34.4679 157.272 34.396C157.249 34.3242 157.209 34.257 157.154 34.1983C157.099 34.1397 157.031 34.0907 156.954 34.0543C156.876 34.018 156.791 33.9949 156.703 33.9864C155.606 33.9623 154.518 34.1543 153.525 34.547C152.533 34.9397 151.664 35.5221 150.988 36.2476C150.872 36.3641 150.815 36.5145 150.83 36.666C150.845 36.8175 150.931 36.9577 151.07 37.0561C151.176 37.1204 151.299 37.1627 151.429 37.1795Z" fill="#263238"/>
<path d="M238.834 309.606C226.342 255.721 223.534 213.58 211.68 193.12L153.371 198.602C153.371 198.602 188.101 278.895 205.067 313.169C222.685 348.8 257.464 409.673 257.464 409.673H286.594C286.594 409.673 259.407 334.15 238.834 309.606Z" fill="#263238"/>
<path d="M54.0138 105.618L47.7111 102.274C46.688 101.721 45.468 101.483 44.259 101.601C43.0501 101.718 41.9272 102.184 41.0817 102.919L36.8037 106.701C36.343 107.109 35.9869 107.592 35.7575 108.121C35.5281 108.649 35.4303 109.211 35.4701 109.772C35.5099 110.334 35.6864 110.882 35.9888 111.384C36.2912 111.886 36.7131 112.33 37.2283 112.69L40.2816 114.882C42.9375 116.771 46.0358 118.172 49.3766 118.994L58.6021 121.282L64.6599 115.8C66.505 110.086 54.0138 105.618 54.0138 105.618Z" fill="#FFB573"/>
<path d="M147.314 103.055C145.028 107.742 142.791 112.1 140.358 116.554C137.925 121.008 135.46 125.407 132.733 129.778C130.006 134.15 127.099 138.494 123.801 142.852C122.168 145.017 120.356 147.183 118.298 149.362C116.087 151.764 113.568 153.956 110.787 155.899C108.951 157.158 106.926 158.209 104.762 159.023C104.076 159.242 103.44 159.462 102.689 159.654L101.546 159.914C100.971 160.032 100.387 160.119 99.7984 160.174C97.808 160.362 95.7933 160.242 93.8549 159.818C91.4315 159.249 89.1287 158.366 87.0296 157.2C85.4576 156.377 83.957 155.461 82.5394 154.46C77.827 151.007 73.4835 147.214 69.5583 143.126C65.7538 139.289 62.1616 135.438 58.7163 131.505C55.271 127.572 51.9564 123.707 48.5601 119.583L66.6192 109.798C72.3183 117.519 78.6241 124.913 85.4948 131.93C88.6532 135.18 92.1326 138.201 95.8959 140.961C96.625 141.462 97.3942 141.92 98.1982 142.331C98.8024 142.674 99.4065 142.811 98.982 142.688C98.4079 142.555 97.8066 142.527 97.2185 142.606C96.981 142.624 96.7459 142.661 96.5164 142.715H96.3858C96.3041 142.715 96.3041 142.715 96.2878 142.715C96.6592 142.512 97.0137 142.287 97.3492 142.044C98.8396 140.908 100.191 139.65 101.382 138.289C102.77 136.726 104.158 134.972 105.481 133.15C108.184 129.36 110.648 125.454 112.861 121.446C115.147 117.335 117.351 113.224 119.392 108.948C121.433 104.672 123.377 100.328 125.026 96.1758L147.314 103.055Z" fill="#1DF7D2"/>
<g opacity="0.6">
<path d="M147.314 103.055C145.028 107.742 142.791 112.1 140.358 116.554C137.925 121.008 135.46 125.407 132.733 129.778C130.006 134.15 127.099 138.494 123.801 142.852C122.168 145.017 120.356 147.183 118.298 149.362C116.087 151.764 113.568 153.956 110.787 155.899C108.951 157.158 106.926 158.209 104.762 159.023C104.076 159.242 103.44 159.462 102.689 159.654L101.546 159.914C100.971 160.032 100.387 160.119 99.7984 160.174C97.808 160.362 95.7933 160.242 93.8549 159.818C91.4315 159.249 89.1287 158.366 87.0296 157.2C85.4576 156.377 83.957 155.461 82.5394 154.46C77.827 151.007 73.4835 147.214 69.5583 143.126C65.7538 139.289 62.1616 135.438 58.7163 131.505C55.271 127.572 51.9564 123.707 48.5601 119.583L66.6192 109.798C72.3183 117.519 78.6241 124.913 85.4948 131.93C88.6532 135.18 92.1326 138.201 95.8959 140.961C96.625 141.462 97.3942 141.92 98.1982 142.331C98.8024 142.674 99.4065 142.811 98.982 142.688C98.4079 142.555 97.8066 142.527 97.2185 142.606C96.981 142.624 96.7459 142.661 96.5164 142.715H96.3858C96.3041 142.715 96.3041 142.715 96.2878 142.715C96.6592 142.512 97.0137 142.287 97.3492 142.044C98.8396 140.908 100.191 139.65 101.382 138.289C102.77 136.726 104.158 134.972 105.481 133.15C108.184 129.36 110.648 125.454 112.861 121.446C115.147 117.335 117.351 113.224 119.392 108.948C121.433 104.672 123.377 100.328 125.026 96.1758L147.314 103.055Z" fill="white"/>
</g>
<path d="M190.061 82.0202C183.938 91.6131 162.14 128.162 159.495 150.719C149.845 130.163 151.951 84.6925 151.951 84.6925C145.073 85.2551 138.327 86.6395 131.916 88.8038C129.85 89.5162 128.059 90.6949 126.742 92.2091C125.425 93.7232 124.633 95.5139 124.454 97.3826C122.575 120.91 123.461 144.536 127.099 167.918C133.875 212.182 140.162 281.018 140.162 281.018C140.162 281.018 194.127 279.127 235.764 271.755C230.686 237.919 213.313 181.211 213.15 166.027C212.954 146.485 213.493 108.277 214.227 92.3257C214.351 90.0736 213.51 87.8588 211.856 86.0818C210.203 84.3047 207.847 83.0828 205.214 82.6369C200.219 81.86 195.122 81.6526 190.061 82.0202Z" fill="#1DF7D2"/>
<path opacity="0.7" d="M190.061 82.0198C183.938 91.6127 162.14 128.162 159.495 150.719C149.845 130.163 151.951 84.6921 151.951 84.6921C145.073 85.2547 138.327 86.6391 131.916 88.8034C129.85 89.5159 128.059 90.6945 126.742 92.2087C125.425 93.7229 124.633 95.5135 124.454 97.3822C122.575 120.91 123.461 144.536 127.099 167.918C133.875 212.182 140.162 281.018 140.162 281.018C140.162 281.018 194.127 279.127 235.764 271.754C230.686 237.919 213.313 181.211 213.15 166.026C212.954 146.484 213.493 108.263 214.227 92.3117C214.382 90.128 213.613 87.9687 212.057 86.2139C210.501 84.4591 208.257 83.2214 205.72 82.7187C200.565 81.8708 195.294 81.6355 190.061 82.0198Z" fill="white"/>
<path d="M177.342 273.673C167.969 230.272 160.54 166.588 159.936 158.928H160.768C161.372 166.588 168.818 230.189 178.174 273.591L177.342 273.673Z" fill="white"/>
<path d="M172.672 196.464H122.903C121.898 196.426 120.935 196.115 120.157 195.579C119.38 195.043 118.831 194.31 118.592 193.49L101.954 128.573C101.832 128.219 101.812 127.845 101.896 127.483C101.979 127.121 102.164 126.781 102.435 126.491C102.706 126.2 103.056 125.968 103.454 125.813C103.853 125.658 104.29 125.585 104.729 125.599H154.482C155.49 125.635 156.457 125.944 157.237 126.48C158.017 127.016 158.569 127.751 158.809 128.573L175.447 193.49C175.569 193.844 175.589 194.218 175.505 194.58C175.422 194.942 175.237 195.282 174.966 195.573C174.695 195.863 174.345 196.095 173.946 196.25C173.548 196.405 173.111 196.478 172.672 196.464Z" fill="white"/>
<path d="M171.12 197.011H120.502C119.479 196.971 118.498 196.655 117.707 196.109C116.915 195.563 116.355 194.817 116.11 193.983L99.1775 127.97C99.0562 127.608 99.0385 127.227 99.1259 126.859C99.2132 126.49 99.4032 126.144 99.6801 125.849C99.9571 125.554 100.313 125.317 100.72 125.16C101.126 125.002 101.571 124.927 102.019 124.941H152.636C153.66 124.981 154.64 125.298 155.432 125.843C156.223 126.389 156.783 127.135 157.029 127.97L173.945 193.983C174.069 194.343 174.09 194.724 174.005 195.093C173.92 195.461 173.732 195.808 173.456 196.104C173.18 196.4 172.825 196.636 172.418 196.794C172.012 196.952 171.567 197.026 171.12 197.011Z" fill="#1DF7D2"/>
<path d="M176.917 159.764L164.328 159.367C162.814 159.323 161.306 159.547 159.903 160.024L153.371 162.217C152.759 162.421 152.201 162.726 151.732 163.115C151.264 163.504 150.893 163.968 150.643 164.48C150.393 164.992 150.269 165.541 150.277 166.094C150.286 166.647 150.428 167.193 150.694 167.699L153.306 172.44C153.833 173.36 154.722 174.099 155.822 174.534C156.922 174.968 158.167 175.071 159.348 174.825L166.548 173.318C166.548 173.318 180.068 172.413 180.558 166.465L176.917 159.764Z" fill="#FFB573"/>
<path d="M211.68 87.8984C214.798 92.0097 217.656 95.7646 220.464 99.7936C223.273 103.823 226.032 107.811 228.629 111.977C231.225 116.143 233.69 120.446 235.927 125.05C237.089 127.462 238.081 129.928 238.899 132.437C239.952 135.495 240.436 138.67 240.336 141.852V142.386C240.342 142.478 240.342 142.569 240.336 142.66C240.336 143.154 240.173 143.647 240.058 144.14C239.944 144.634 239.797 145.017 239.634 145.511C239.471 146.004 239.291 146.264 239.111 146.648C238.487 147.834 237.686 148.948 236.727 149.965C235.393 151.364 233.876 152.632 232.204 153.747C229.636 155.445 226.906 156.962 224.04 158.283C219 160.596 213.81 162.673 208.496 164.505C203.352 166.341 198.225 168.013 193.065 169.589C187.906 171.165 182.828 172.686 177.455 174.194L171.234 156.926C176.133 155.803 181.129 154.418 186.012 153.021C190.894 151.623 195.809 150.061 200.446 148.43C204.997 146.852 209.435 145.054 213.737 143.044C215.553 142.199 217.284 141.232 218.913 140.152C219.341 139.88 219.725 139.562 220.056 139.207C219.916 139.34 219.805 139.493 219.73 139.659C219.73 139.782 219.648 139.865 219.566 140.015C219.502 140.176 219.453 140.341 219.419 140.509C219.351 140.719 219.307 140.935 219.289 141.153C219.289 141.235 219.289 141.249 219.289 141.221V141.125C219.175 139.825 218.873 138.541 218.391 137.302C217.738 135.508 216.964 133.746 216.072 132.026C214.076 128.233 211.819 124.54 209.312 120.967C206.765 117.294 204.054 113.621 201.148 110.003C198.241 106.385 195.27 102.781 192.282 99.4922L211.68 87.8984Z" fill="#1DF7D2"/>
<g opacity="0.7">
<path d="M211.68 87.8994C214.798 92.0107 217.656 95.7656 220.464 99.7946C223.273 103.824 226.032 107.812 228.629 111.978C231.225 116.144 233.69 120.447 235.927 125.051C237.089 127.463 238.081 129.929 238.899 132.438C239.952 135.496 240.436 138.671 240.336 141.853V142.387C240.342 142.478 240.342 142.57 240.336 142.661C240.336 143.155 240.173 143.648 240.058 144.141C239.944 144.635 239.797 145.018 239.634 145.512C239.471 146.005 239.291 146.265 239.111 146.649C238.487 147.835 237.686 148.949 236.727 149.966C235.393 151.365 233.876 152.633 232.204 153.748C229.636 155.446 226.906 156.963 224.04 158.284C219 160.597 213.81 162.674 208.496 164.506C203.352 166.342 198.225 168.014 193.065 169.59C187.906 171.166 182.828 172.687 177.455 174.195L171.234 156.927C176.133 155.804 181.129 154.419 186.012 153.022C190.894 151.624 195.809 150.062 200.446 148.431C204.997 146.853 209.435 145.055 213.737 143.045C215.553 142.2 217.284 141.233 218.913 140.153C219.341 139.881 219.725 139.563 220.056 139.208C219.916 139.341 219.805 139.494 219.73 139.66C219.73 139.783 219.648 139.866 219.566 140.016C219.502 140.177 219.453 140.342 219.419 140.51C219.351 140.72 219.307 140.936 219.289 141.154C219.289 141.236 219.289 141.25 219.289 141.222V141.126C219.175 139.826 218.873 138.542 218.391 137.303C217.738 135.509 216.964 133.747 216.072 132.027C214.076 128.234 211.819 124.541 209.312 120.968C206.765 117.295 204.054 113.622 201.148 110.004C198.241 106.386 195.27 102.782 192.282 99.4931L211.68 87.8994Z" fill="white"/>
</g>
<path d="M195.156 135.453C195.047 135.452 194.94 135.428 194.846 135.382C194.752 135.337 194.673 135.271 194.617 135.193C194.569 135.133 194.536 135.066 194.52 134.995C194.504 134.924 194.505 134.851 194.524 134.781C194.542 134.711 194.577 134.644 194.627 134.585C194.676 134.527 194.74 134.477 194.813 134.439L197.36 133.069C199.738 131.81 201.604 129.976 202.712 127.808C203.82 125.639 204.117 123.24 203.565 120.927L198.438 99.1373C198.063 97.508 197.043 96.0327 195.545 94.9499C194.047 93.867 192.158 93.24 190.182 93.1703C188.207 93.1006 186.261 93.5922 184.66 94.5656C183.059 95.539 181.895 96.9373 181.358 98.5343L174.092 119.899C173.299 122.158 173.342 124.565 174.217 126.802C175.092 129.039 176.757 131 178.991 132.425L181.407 133.96C181.543 134.049 181.632 134.18 181.653 134.324C181.675 134.467 181.627 134.612 181.522 134.727C181.471 134.783 181.407 134.83 181.334 134.865C181.261 134.901 181.18 134.923 181.097 134.932C181.013 134.941 180.928 134.936 180.847 134.917C180.766 134.899 180.69 134.866 180.624 134.823L178.338 133.302C175.882 131.75 174.047 129.608 173.076 127.16C172.105 124.713 172.044 122.075 172.9 119.598L180.183 98.2328C180.808 96.4085 182.145 94.8133 183.98 93.7033C185.815 92.5933 188.041 92.0328 190.301 92.1118C192.561 92.1909 194.723 92.9048 196.442 94.1391C198.16 95.3733 199.335 97.0563 199.777 98.918L204.904 120.721C205.509 123.248 205.185 125.87 203.975 128.239C202.765 130.608 200.726 132.613 198.128 133.987L195.564 135.357C195.507 135.396 195.442 135.424 195.372 135.44C195.302 135.457 195.228 135.461 195.156 135.453Z" fill="#263238"/>
<path d="M199.074 99.5891L180.738 98.945C180.652 98.9415 180.568 98.9238 180.49 98.8929C180.412 98.8621 180.343 98.8187 180.285 98.7652C180.227 98.7118 180.183 98.6493 180.154 98.5814C180.125 98.5134 180.113 98.4414 180.117 98.3694C180.133 98.2264 180.213 98.0938 180.34 97.9974C180.467 97.901 180.632 97.848 180.803 97.8486L199.123 98.4927C199.209 98.4962 199.293 98.5139 199.371 98.5448C199.449 98.5756 199.518 98.619 199.576 98.6725C199.633 98.726 199.678 98.7884 199.707 98.8564C199.736 98.9243 199.748 98.9963 199.744 99.0683C199.742 99.1397 199.723 99.21 199.688 99.2751C199.653 99.3402 199.602 99.3988 199.54 99.4473C199.478 99.4959 199.404 99.5334 199.324 99.5578C199.244 99.5821 199.159 99.5928 199.074 99.5891Z" fill="#263238"/>
<path d="M190.159 93.2025C189.99 93.1992 189.829 93.1422 189.707 93.0431C189.586 92.9439 189.514 92.8099 189.506 92.668C189.506 89.9272 188.494 85.1719 185.44 84.1303C185.356 84.1065 185.278 84.0685 185.212 84.0185C185.145 83.9685 185.092 83.9076 185.055 83.8396C185.018 83.7716 184.997 83.698 184.995 83.6232C184.993 83.5484 185.009 83.4741 185.043 83.4047C185.076 83.3354 185.127 83.2725 185.19 83.2201C185.254 83.1676 185.329 83.1265 185.412 83.0995C185.495 83.0725 185.584 83.06 185.673 83.0629C185.762 83.0658 185.85 83.0839 185.93 83.1162C190.453 84.6785 190.829 91.8321 190.829 92.7091C190.829 92.8535 190.763 92.9924 190.644 93.0971C190.526 93.2017 190.364 93.264 190.192 93.271L190.159 93.2025Z" fill="#263238"/>
<path d="M134.071 111.826H133.941C133.772 111.797 133.625 111.712 133.53 111.592C133.435 111.471 133.401 111.324 133.435 111.182C135.59 102.179 144.505 87.9674 152.359 83.7739C152.431 83.7365 152.511 83.7115 152.594 83.7002C152.677 83.6889 152.762 83.6916 152.844 83.7082C152.926 83.7248 153.004 83.7549 153.072 83.7967C153.14 83.8386 153.197 83.8914 153.241 83.9521C153.288 84.0108 153.321 84.0771 153.337 84.1468C153.353 84.2166 153.352 84.2883 153.333 84.3576C153.315 84.4269 153.28 84.4923 153.23 84.5499C153.181 84.6074 153.118 84.6558 153.045 84.6921C145.452 88.7211 136.798 102.508 134.708 111.374C134.682 111.5 134.603 111.614 134.487 111.697C134.371 111.779 134.224 111.825 134.071 111.826Z" fill="#263238"/>
<path d="M139.427 113.238C138.415 115.417 136.161 116.733 134.528 116.171C132.896 115.609 132.259 113.43 133.271 111.196C134.283 108.963 136.537 107.702 138.17 108.277C139.802 108.853 140.456 111.059 139.427 113.238Z" fill="white"/>
<path d="M182.534 134.465C182.534 135.479 181.783 136.288 180.983 136.26C180.183 136.233 179.562 135.383 179.611 134.355C179.66 133.328 180.362 132.519 181.162 132.56C181.962 132.601 182.583 133.437 182.534 134.465Z" fill="white"/>
<path d="M196.609 134.958C196.609 135.972 195.875 136.781 195.058 136.754C194.242 136.726 193.654 135.876 193.703 134.849C193.752 133.821 194.438 133.026 195.336 133.053C196.234 133.081 196.658 133.972 196.609 134.958Z" fill="white"/>
<path d="M473.506 115.95L471.873 115.868C472.145 112.951 471.691 110.017 470.54 107.255C469.39 104.492 467.568 101.96 465.189 99.82C462.811 97.6797 459.929 95.9777 456.726 94.8218C453.522 93.666 450.067 93.0815 446.581 93.1056V91.7352C450.291 91.7087 453.968 92.3298 457.377 93.5589C460.786 94.788 463.854 96.5984 466.386 98.8752C468.917 101.152 470.858 103.846 472.083 106.785C473.309 109.724 473.793 112.846 473.506 115.95Z" fill="#1DF7D2"/>
<path d="M474.367 121.696L473.421 133.043L475.054 133.139L476 121.792L474.367 121.696Z" fill="#1DF7D2"/>
<path d="M446.58 96.5312H333.915C327.762 96.6161 321.867 98.6188 317.376 102.15C312.885 105.681 310.12 110.487 309.618 115.635L308.589 128.366C308.355 130.816 308.732 133.279 309.696 135.6C310.659 137.921 312.188 140.048 314.185 141.845C316.182 143.642 318.604 145.07 321.295 146.039C323.986 147.007 326.888 147.495 329.816 147.47H442.482L464.329 158.776L467.791 115.635C468.027 113.186 467.652 110.722 466.691 108.402C465.729 106.081 464.202 103.954 462.206 102.157C460.21 100.359 457.79 98.9305 455.099 97.9619C452.409 96.9933 449.508 96.506 446.58 96.5312Z" fill="#1DF7D2"/>
<path d="M440.865 114.771H336.511V117.951H440.865V114.771Z" fill="white"/>
<path d="M439.951 126.05H362.473V129.229H439.951V126.05Z" fill="white"/>
<path d="M277.092 164.642H392.239C395.233 164.614 398.201 165.111 400.953 166.101C403.705 167.09 406.181 168.55 408.223 170.388C410.265 172.226 411.828 174.4 412.812 176.773C413.796 179.146 414.18 181.666 413.94 184.17L412.895 197.189C412.377 202.449 409.549 207.361 404.96 210.969C400.371 214.578 394.347 216.627 388.059 216.718H272.895L248.697 228.298L252.256 184.17C252.77 178.909 255.597 173.996 260.187 170.386C264.777 166.777 270.803 164.729 277.092 164.642Z" fill="white"/>
<path opacity="0.15" d="M277.092 164.642H392.239C395.233 164.614 398.201 165.111 400.953 166.101C403.705 167.09 406.181 168.55 408.223 170.388C410.265 172.226 411.828 174.4 412.812 176.773C413.796 179.146 414.18 181.666 413.94 184.17L412.895 197.189C412.377 202.449 409.549 207.361 404.96 210.969C400.371 214.578 394.347 216.627 388.059 216.718H272.895L248.697 228.298L252.256 184.17C252.77 178.909 255.597 173.996 260.187 170.386C264.777 166.777 270.803 164.729 277.092 164.642Z" fill="#1DF7D2"/>
<path opacity="0.5" d="M386.394 183.292H279.672V186.554H386.394V183.292Z" fill="#1DF7D2"/>
<path opacity="0.5" d="M320.917 194.817H278.741V198.079H320.917V194.817Z" fill="#1DF7D2"/>
<path opacity="0.5" d="M358.195 194.817H331.253V198.079H358.195V194.817Z" fill="#1DF7D2"/>
</svg>
