<?xml version="1.0" encoding="UTF-8"?> <!-- Generator: Adobe Illustrator 28.0.0, SVG Export Plug-In . SVG Version: 6.00 Build 0) --> <svg xmlns="http://www.w3.org/2000/svg" xmlns:xlink="http://www.w3.org/1999/xlink" version="1.1" id="Layer_1" x="0px" y="0px" viewBox="0 0 1272 1000.2" style="enable-background:new 0 0 1272 1000.2;" xml:space="preserve"> <style type="text/css"> .st0{fill:#263238;} .st1{fill:#19BAB2;} .st2{fill:#FFBE9D;} .st3{fill:#EB996E;} .st4{opacity:0.3;} .st5{fill:#FAFAFA;} .st6{fill:#455A64;} .st7{fill:#B78876;} .st8{fill:#7C5142;} .st9{opacity:0.6;} .st10{fill:#FFFFFF;} .st11{fill:#032A44;} </style> <path class="st0" d="M860.1,500.4c2,8,1.7,16.4-0.7,24.3c-2.4,7.9-6.9,15-13,20.5c-8.1,7.2-18.6,11.3-26,19.2 c-4.6,5.2-7.8,11.6-9.2,18.4c-1.4,6.8-1,13.9,1.1,20.5c2.3,6.6,5.8,12.6,10.5,17.8c4.7,5.2,10.3,9.3,16.6,12.2 c8.6,4,18,5.9,27.5,5.6c9.5-0.3,18.8-2.9,27.1-7.5c20.5-11.6,32.4-34.8,35.4-58.2c3-23.3-1.7-47-8-69.7"></path> <path class="st0" d="M1118.5,912c21.2-3.5,41.1,3,62.1,7.6c5.6,1.7,11.5,2,17.2,0.9c9.1-2.3,15.6-11.2,17-20.5 c1.1-8.1-0.8-16.4-5.3-23.2c-1.8-2.9-4.3-5.4-7.3-7.2c-3.2-1.6-6.6-2.5-10.2-2.7c-12.9-1-25.8,1.4-37.4,7 c-11.6,5.6-22.1,13.2-31,22.5C1119.2,901,1120.5,906.1,1118.5,912"></path> <path class="st0" d="M688.6,569.9c-3.4-20.2-3-40.9,1.2-60.9c1.8-9.8,5.4-19.2,10.6-27.7c1.8-3.2,4.5-5.7,7.8-7.3 c2.4-0.8,4.9-0.9,7.4-0.3c2.4,0.6,4.7,1.8,6.4,3.6c2.3,2.4,4,5.2,5.1,8.2c1.1,3.1,1.5,6.4,1.3,9.6c-0.5,6.5-2.1,12.9-4.7,18.9 C715.5,534.9,702.5,552.3,688.6,569.9"></path> <path class="st1" d="M1099.4,646.5c4.8,3.4,111.3,232.8,111.3,232.8c-8.6-3.7-18-4.6-27.2-2.6l-5.8,1.5c-10.3,2.8-20.1,7.3-29,13.2 l-30.4,20.6c-1.2-0.7-2.2-1.7-3-2.8c-0.8-1.2-1.2-2.5-1.3-3.9v-0.9l-82.6-141.7L1099.4,646.5z"></path> <path class="st2" d="M699.5,281.3l28.4,161.5c9.1,21.7,115.8,153.4,115.8,153.4l-35.2,113.3l-140-191.5 c-13-13.9-20.1-32.3-19.7-51.4l5.5-172.5L699.5,281.3z"></path> <path class="st1" d="M850.7,570.8l73.1,5.5l63.8,9.9c0,0,111.9,29.4,111.9,41.6c0,4.1-30.5,101.3-47.7,159.6 c-4.2,14.1-7.6,28.5-10.3,43l58,128.4H824.3V841.1c0,0-18.5-154.6-15.3-175.7C812.2,644.3,850.7,570.8,850.7,570.8z"></path> <path class="st3" d="M664.8,216c0.4-16.4,2.1-32.8,5-49c0.4-2.3,1.4-5.1,3.7-5.3c2.9-0.4,4.3,3.3,4.7,6.2 c2.5,19.5,1.7,39.3-2.4,58.6"></path> <path class="st1" d="M697.4,557.9c31.4-28,32.4-76.6,29.8-115.3c-0.5-2.8-0.1-5.7,1.2-8.3c3-4.3,10.3-2.6,13.2,1.6s2.7,9.9,2.5,15.1 c1.6-4.4,8.5-4.4,11.7-1c3.2,3.4,3.8,8.5,4.2,13.2l1,12.9l91.7,87.5c0,0,2.5-8,9.2-3.4c6.7,4.6,11.1,14.3,11.1,14.3l-64.6,141 L688.6,569.9C690.9,565.5,693.9,561.4,697.4,557.9z"></path> <path class="st1" d="M821.8,655.5c-9.6,12.2-16.7,26.1-21,41c-4.3,15-3.8,30.9,1.4,45.6c4,10.2,10.6,19.1,19.1,26 c8.5,6.9,18.7,11.4,29.4,13.2"></path> <path class="st2" d="M1118.5,912l-3.5,46.8h67.9l15.9-82.8c-20.7-1.2-41.1,5.2-57.4,18L1118.5,912z"></path> <path class="st0" d="M729.3,547.6c0.4-1.3,0.9-2.5,1.5-3.7c1.1-2.3,2.5-5.8,4.1-10.1c1.6-4.3,3.3-9.5,5-15.3c1.7-6.4,3-12.8,4-19.3 c0.9-6.5,1.5-13.1,1.7-19.6c0-6.1,0-11.5-0.4-16.1c-0.4-4.6-0.7-8.3-1.1-10.8c-0.2-1.3-0.4-2.7-0.4-4c0.4,1.3,0.7,2.6,0.9,3.9 c0.7,3.6,1.2,7.2,1.5,10.8c0.5,5.4,0.7,10.8,0.7,16.2c-0.2,13.3-2.1,26.5-5.7,39.2c-1.5,5.2-3.2,10.3-5.3,15.3 c-1.7,4.3-3.3,7.7-4.5,10C730.7,545.3,730.1,546.5,729.3,547.6z"></path> <path class="st0" d="M749.3,522.9c0.9-2.3,1.9-4.5,3-6.7c4.6-10.8,7.3-22.2,7.9-33.9c0-2.4,0.1-4.9,0.4-7.3c0.5,2.4,0.7,4.9,0.6,7.3 c-0.1,11.9-2.8,23.6-8,34.3C752.2,518.9,750.9,521.1,749.3,522.9z"></path> <path class="st0" d="M856.9,596.2c-0.2-0.1,0.9-1.9,1.5-5c0.7-4.1,0.5-8.3-0.7-12.3c-1.3-4-2.8-7.9-4.6-11.7c-0.8-1.6-1.5-3.2-1.9-5 c1,1.4,1.9,2.9,2.7,4.6c2.1,3.7,3.8,7.7,5.1,11.8c1.3,4.2,1.4,8.6,0.3,12.9C859,593.3,858.2,594.9,856.9,596.2z"></path> <path class="st0" d="M841,782.9c-0.4-0.2-0.8-0.4-1.2-0.7l-3.1-2.1c-2.6-1.8-6.6-4.5-11.2-8.1c-5.5-4.2-10.4-9-14.9-14.2 c-5.5-6.5-9.4-14.2-11.5-22.4c-2-8.2-2.5-16.8-1.5-25.2c0.8-6.8,2.3-13.5,4.5-20.1c1.5-4.4,3.1-8.7,5.1-12.9 c0.7-1.5,1.2-2.7,1.6-3.4c0.2-0.4,0.4-0.8,0.7-1.2c-0.5,1.6-1.1,3.2-1.8,4.8c-1.2,3-2.9,7.4-4.6,13c-2,6.5-3.4,13.1-4.2,19.9 c-0.9,8.3-0.4,16.6,1.6,24.7c2.1,8,5.9,15.5,11.2,21.9c4.3,5.2,9.2,10,14.5,14.3c4.5,3.7,8.3,6.5,10.9,8.5l3,2.3 C840.7,782.6,841,782.9,841,782.9z"></path> <path class="st0" d="M991.1,809.1c-0.4,0.2-0.8,0.3-1.2,0.4c-0.8,0.2-1.9,0.6-3.4,0.9c-4.3,0.9-8.6,1.4-13,1.6 c-14.6,0.4-28.9-3.5-41.2-11.3c-12.3-7.8-22-19.1-27.8-32.4c-1.8-4-3.2-8.1-4.2-12.4c-0.4-1.5-0.5-2.7-0.7-3.5 c-0.1-0.4-0.1-0.8-0.1-1.2c0.5,1.5,1,3,1.3,4.6c4.2,16,13.7,30.1,26.8,40.1c13.2,10,29.3,15.3,45.9,15.1c4.3,0,8.6-0.4,12.9-1.1 C988,809.6,989.5,809.3,991.1,809.1z"></path> <path class="st0" d="M1033.3,860.8c-0.4,0,3.1-14.8,8-32.7s8.8-32.5,9.1-32.4c0.3,0.1-3.1,14.7-7.8,32.7 C1037.9,846.4,1033.6,860.8,1033.3,860.8z"></path> <path class="st0" d="M1070.2,829.5c-0.3,0.2-11-17.2-23.8-38.9c-12.9-21.7-22.9-39.4-22.6-39.6c0.3-0.2,11,17.2,23.8,38.9 C1060.5,811.6,1070.7,829.3,1070.2,829.5z"></path> <path class="st0" d="M1172,872.4c0,0.3-3.9,0.6-9.9,2.1c-3.5,0.9-7,2-10.4,3.4c-4.1,1.7-8.1,3.8-11.9,6.1c-3.7,2.4-7.3,5.1-10.6,8.1 c-2.7,2.5-5.2,5.1-7.6,8c-4,4.8-5.9,8.2-6.2,8c0.3-0.9,0.7-1.7,1.2-2.4c1.2-2.2,2.6-4.2,4.2-6.2c2.3-2.9,4.8-5.7,7.4-8.2 c3.3-3.1,6.9-5.9,10.8-8.3c3.9-2.4,7.9-4.5,12.1-6.1c3.4-1.4,7-2.4,10.6-3.2c2.4-0.6,4.9-0.9,7.4-1.1 C1170.2,872.3,1171.1,872.3,1172,872.4z"></path> <path class="st0" d="M1185,856.5c0,0.3-4.3-0.2-11.1,0.3c-4,0.4-7.9,1-11.8,2.1c-9.4,2.5-18.3,6.9-26,13c-3.1,2.5-6,5.2-8.7,8.2 c-4.5,5.1-6.6,8.8-6.9,8.7c0.4-0.9,0.8-1.8,1.4-2.7c0.6-1,1.2-2,1.9-2.9c0.9-1.3,1.8-2.5,2.8-3.7c2.6-3.1,5.5-6,8.6-8.5 c3.9-3.1,8.1-5.8,12.5-8.1c4.4-2.2,9.1-3.9,13.9-5.1c3.9-1,8-1.6,12-1.8c1.5-0.1,3.1-0.1,4.6,0c1.2,0,2.4,0.1,3.5,0.2 C1183,856.1,1184,856.2,1185,856.5z"></path> <g class="st4"> <path d="M902.3,756.8c-6.2,11.8-1,26.2,4.7,38.3c4.4,9.4,9.4,18.9,17.4,25.4c4,3.2,8.5,5.6,13.5,7c4.9,1.4,10.1,1.7,15.1,1 c5.1-0.7,9.9-2.5,14.3-5.1s8.1-6.2,11-10.4c-16.9-0.3-33.3-5.6-47.1-15.4c-13.8-9.8-24.3-23.5-30.2-39.3"></path> </g> <g class="st4"> <path d="M1024,751c-4.8,11.4-1.2,26.9,3.8,38.2c5,11.3,10.3,23.8,6.3,35.5c-1,2.1-1.6,4.4-1.6,6.7c0.3,2.3,2.7,4.5,4.8,3.4 c1.1-0.8,1.9-2,2.1-3.3c3.8-11.3,7.5-22.7,11.3-34"></path> </g> <path class="st5" d="M773.3,601.3c0.4-7.1,1.3-14.2,2.7-21.2c0.9-7,2.3-14,4.1-20.9c-0.4,7.1-1.3,14.2-2.6,21.2 C776.5,587.5,775.1,594.5,773.3,601.3z"></path> <path class="st5" d="M745.4,595.5c-0.3,0.2-4.9-6.1-11.2-13.5c-6.3-7.3-11.9-12.8-11.6-13.1c4.8,3.5,9,7.6,12.7,12.2 C739.2,585.4,742.6,590.3,745.4,595.5z"></path> <path class="st5" d="M769.3,527.2c-0.8,1.7-1.8,3.3-3,4.8c-2,2.8-5,6.6-8.4,10.6c-3.4,4-6.7,7.6-9.2,10c-1.2,1.4-2.7,2.7-4.2,3.7 c-0.3-0.3,5.5-6.5,12.3-14.6C763.7,533.6,769,526.9,769.3,527.2z"></path> <path class="st5" d="M760,493.9c-0.4,0.2-1.9-3.2-4.8-6.6c-2.9-3.4-6-5.3-5.8-5.7c2.8,0.8,5.2,2.5,6.9,4.8 C758.2,488.4,759.6,491,760,493.9z"></path> <path class="st5" d="M735.8,514.4c-2.2,1-4.5,1.6-6.9,1.8c-2.3,0.6-4.7,0.7-7.1,0.4C726.3,515,731.1,514.2,735.8,514.4z"></path> <path class="st5" d="M796.8,543.9c0.1-4.1-0.2-8.2-0.9-12.3c-1.1-4-2.5-7.9-4.3-11.6c3,3.1,5,7,5.6,11.3 C798.4,535.4,798.2,539.8,796.8,543.9z"></path> <path class="st5" d="M829.4,578.9c-4.9-7.8-11.5-14.4-19.2-19.4c4.4,1.7,8.4,4.3,11.7,7.6C825.1,570.5,827.7,574.5,829.4,578.9z"></path> <path class="st5" d="M777.1,639.7c-7.9,3-16.6,2.7-24.3-0.8c0.1-0.4,5.3,1.3,12.1,1.5C771.7,640.5,777,639.3,777.1,639.7z"></path> <path class="st5" d="M801.6,652.3c-0.4-0.2,1.7-6.3,3.4-14c1.7-7.7,2.5-14.2,2.9-14.1c0.3,4.8-0.2,9.7-1.5,14.4 C805.5,643.4,803.9,648,801.6,652.3z"></path> <path class="st5" d="M855.2,654.3c-4.2-3.5-8.1-7.4-11.6-11.7c-3.9-3.9-7.4-8.1-10.6-12.6c4.2,3.6,8,7.5,11.6,11.7 C848.5,645.6,852,649.8,855.2,654.3z"></path> <path class="st5" d="M880.2,716.2c-3.2-2.3-6.1-5-8.6-8c-2.9-2.7-5.4-5.7-7.6-8.9c3.2,2.3,6.1,5,8.6,7.9 C875.5,710,878,713,880.2,716.2z"></path> <path class="st5" d="M833.8,722.1c-3,3.2-6.6,5.9-10.6,8c-3.7,2.5-7.9,4.3-12.2,5.3c0-0.4,5.3-2.6,11.6-6.4 C828.7,725.3,833.5,721.8,833.8,722.1z"></path> <path class="st5" d="M855.1,781.1c-0.4,0,1.2-7,2-15.8c0.8-8.7,0.6-15.9,1-15.9c1,5.2,1.1,10.6,0.4,15.9 C858.2,770.7,857.1,776,855.1,781.1z"></path> <path class="st5" d="M935.5,733.2c-4.4-2.7-8.3-6.1-11.5-10.1c-3.5-3.7-6.4-8-8.5-12.7c0.3-0.2,4,5.5,9.5,11.8 C930.5,728.5,935.7,732.8,935.5,733.2z"></path> <path class="st5" d="M964.8,758.2c-0.3-0.2,3.7-5.8,8.2-12.8c4.5-7.1,7.8-13,8.2-12.8c-1.7,4.8-4.1,9.4-7,13.6 C971.6,750.5,968.5,754.6,964.8,758.2z"></path> <path class="st5" d="M960.5,697c-9-1.5-17.9-3.9-26.5-7.2c4.6,0.5,9.1,1.5,13.5,2.9C952,693.7,956.3,695.2,960.5,697z"></path> <path class="st5" d="M939.1,804.6c-0.5-4.2-0.5-8.4,0-12.6c0-4.2,0.5-8.4,1.4-12.5c0.5,4.2,0.5,8.4,0,12.6 C940.5,796.4,940.1,800.5,939.1,804.6z"></path> <path class="st5" d="M957.6,841.5c1.4-4.3,2.5-8.6,3.3-13.1c0.4-4.5,0.4-9,0.2-13.5c1.4,4.4,1.8,9.1,1.1,13.6 C961.7,833.2,960.1,837.6,957.6,841.5L957.6,841.5z"></path> <path class="st5" d="M909.7,833.4c-1.4-9.2,0.4-18.5,5.1-26.5c0.4,0.2-2.1,5.8-3.4,13.1C910,827.3,910.1,833.3,909.7,833.4z"></path> <path class="st5" d="M866,852.1c-4.3-3-8.5-6.2-12.5-9.7c-4.3-3.1-8.4-6.4-12.3-9.9c4.8,2.4,9.2,5.3,13.2,8.8 C858.7,844.4,862.6,848,866,852.1z"></path> <path class="st5" d="M895.6,800.1c-10.1,6.4-20.8,12.1-31.8,16.8c5-3.4,10.2-6.5,15.7-9.1C884.6,804.8,890,802.2,895.6,800.1z"></path> <path class="st0" d="M987.5,916.7c-0.6,0.2-1.1,0.3-1.7,0.4c-1.1,0.2-2.8,0.6-5,0.9c-6.1,0.9-12.3,1.3-18.5,1.2 c-16-0.2-31.8-3.9-46.4-10.7c-14.5-6.8-27.4-16.6-37.9-28.7c-6.1-7-11.3-14.7-15.5-22.9c-2.9-5.5-5.3-11.3-7.1-17.3 c-0.7-2.1-1.1-3.8-1.4-4.9c-0.2-0.6-0.3-1.2-0.3-1.7c0.3,0.5,0.5,1.1,0.6,1.7c0.4,1.1,0.8,2.7,1.6,4.8c5.1,14.5,12.9,27.9,23.1,39.5 c10.5,11.9,23.3,21.5,37.6,28.2c14.3,6.7,29.9,10.5,45.7,11c6.2,0.2,12.4,0,18.6-0.7c2.2-0.2,3.9-0.6,5-0.7 C986.4,916.8,987,916.7,987.5,916.7z"></path> <path class="st5" d="M908.4,903c-0.9-4.2-0.5-8.6,1.2-12.5c1.3-4.1,3.9-7.7,7.3-10.3c-2.3,3.4-4.4,7-6,10.8 C909.7,894.9,908.8,898.9,908.4,903z"></path> <path class="st5" d="M886.6,893.9c-2.5,1.9-4.8,4.2-6.9,6.6c-1.7,2.7-3.2,5.5-4.3,8.5c0.1-3.4,1.2-6.6,3.2-9.3 C880.6,896.9,883.4,894.9,886.6,893.9z"></path> <path class="st5" d="M970.4,943.8c-4.3-0.3-8.5-1.7-12.2-4c-3.7-2.3-6.8-5.5-9-9.2C955,936.8,962.3,941.4,970.4,943.8z"></path> <path class="st5" d="M983.5,870.4c-0.6,3.9-2.2,7.6-4.7,10.6c-2.5,3-5.9,5.2-9.6,6.4c3.1-2.1,6-4.6,8.6-7.3 C979.9,877.1,981.9,873.8,983.5,870.4z"></path> <path class="st5" d="M1020.5,925.1c-0.3-0.3,3.2-4.7,6.4-10.8c3.2-6.1,5-11.5,5.3-11.3C1030.7,911.4,1026.6,919.2,1020.5,925.1 L1020.5,925.1z"></path> <path class="st5" d="M1069.5,932.3c0.2,0.4-4.7,2.3-9.5,6.3c-4.9,4-7.8,8.3-8.1,8c1.5-3.7,4-6.8,7.2-9.1 C1062.1,934.8,1065.7,933,1069.5,932.3z"></path> <path class="st5" d="M1032.2,869.6c-0.4,0.1-2.7-7.6-7.6-16.2c-5-8.6-10.3-14.6-9.9-14.9c1.5,1,2.7,2.3,3.8,3.7 c5.6,6.5,9.8,14.1,12.5,22.2C1031.6,866.1,1032,867.8,1032.2,869.6z"></path> <path class="st5" d="M1039.5,790.7c-8.2,2.8-16.8,4.8-25.4,5.9C1022.3,793.7,1030.8,791.8,1039.5,790.7z"></path> <path class="st5" d="M1016.9,767.1c-3-2.8-5.7-5.9-8.1-9.3c-2.7-3.1-5.1-6.5-7-10.1c3.1,2.8,5.8,5.9,8.1,9.3 C1012.6,760.1,1015,763.5,1016.9,767.1z"></path> <path class="st5" d="M1072.9,753c-8.6-0.2-17-2.2-24.8-5.9c4.2,0.7,8.3,1.7,12.4,2.9C1064.7,750.7,1068.8,751.7,1072.9,753z"></path> <path class="st5" d="M1112.6,752.3c1.1-3.7,2.5-7.4,4.1-11c1.1-3.8,2.5-7.5,4.1-11c-0.2,4-1.1,7.9-2.7,11.5 C1116.9,745.5,1115.1,749.1,1112.6,752.3z"></path> <path class="st5" d="M1103.6,806.1c-8.2-1.8-15.6-6.2-21.2-12.6c0.3-0.3,4.4,3.3,10.2,6.8C1098.5,803.7,1103.7,805.7,1103.6,806.1z"></path> <path class="st5" d="M1129.4,804.5c0.5-5.3,1.5-10.6,2.9-15.7c1-5.2,2.4-10.4,4.2-15.4C1135,783.9,1132.6,794.3,1129.4,804.5 L1129.4,804.5z"></path> <path class="st5" d="M1107.8,864.7c-6.6-7.5-12.5-15.6-17.7-24.1c3.5,3.6,6.6,7.5,9.4,11.7C1102.7,856.1,1105.5,860.3,1107.8,864.7z "></path> <path class="st5" d="M1144.6,841.6c-0.4,0.2-2.8-4.6-6.6-10c-3.8-5.4-7.5-9.2-7.2-9.5c3.3,2.3,6.2,5.3,8.3,8.7 C1141.7,834.1,1143.6,837.7,1144.6,841.6z"></path> <path class="st5" d="M1179.2,836.5c-3-3.5-5.8-7.3-8.5-11.1c-3-3.5-5.8-7.2-8.5-11.1C1169.2,820.5,1175,828,1179.2,836.5z"></path> <path class="st5" d="M1170.9,859.3c-0.5-3.2-1.5-6.2-3.1-9c-1.9-2.6-4.3-4.8-7.1-6.5c0-0.2,1.2,0,2.9,0.8c2.2,1.1,4,2.8,5.3,4.9 c1.3,2,2.2,4.4,2.4,6.8C1171.5,858.1,1171.2,859.3,1170.9,859.3z"></path> <path class="st5" d="M1144.1,890.7c-0.2,0-0.1-0.7-0.3-1.6c-0.2-1.2-0.9-2.3-1.8-3c-1-0.7-2.2-1.1-3.4-1c-0.9,0-1.6,0.2-1.7,0 c-0.1-0.2,0.4-0.7,1.5-1c0.8-0.2,1.5-0.2,2.3-0.1c0.8,0.2,1.5,0.5,2.1,1c0.6,0.5,1.1,1.1,1.4,1.8c0.3,0.7,0.5,1.5,0.5,2.2 C1144.7,890.1,1144.3,890.7,1144.1,890.7z"></path> <path class="st5" d="M868.4,940.8c-4.9-1.9-9.4-4.8-13.2-8.6c-3.8-3.7-6.7-8.2-8.6-13.2c5.4,8.9,12.9,16.4,21.8,21.8V940.8z"></path> <path class="st2" d="M699.7,283.1c-4.3-40.3-12-78.2-14.1-117.7c0.1-1,0-2-0.4-2.9c-0.3-0.9-0.8-1.8-1.5-2.5 c-0.6-0.3-1.2-0.6-1.9-0.6c-0.7-0.1-1.3,0-2,0.2c-0.6,0.2-1.2,0.5-1.8,0.9c-0.5,0.4-0.9,0.9-1.2,1.5c-1.2,2.5-1.6,5.2-1.3,8 c0,21-3.5,41.9-10.6,61.7c-4.5,12.9-10.6,25.2-14,38.3c-3.4,13.2,3,17.6,8.9,29.9"></path> <path class="st2" d="M660,299.7c-5.2-4-9.3-9.4-11.8-15.5c-2.5-6.1-3.2-12.8-2.2-19.4c1.4-8,5.3-15.2,8.4-22.6 c3.1-7.4,5.5-15.7,3.6-23.5c-1.1-2.9-1.8-5.9-2.1-9c0-3.1,2-6.5,5.1-6.7c1.2,0.1,2.3,0.5,3.3,1.1c1,0.6,1.8,1.4,2.5,2.4 c5.2,6.4,9.3,25,6.7,39"></path> <path class="st3" d="M673.5,245.5c0,0,0.3-2.1,0.4-6c0.2-5.5-0.3-10.9-1.4-16.3c-0.7-3.7-1.8-7.3-3.2-10.8c-0.7-1.9-1.7-3.7-3-5.3 c-0.6-0.9-1.3-1.6-2.1-2.2c-0.9-0.6-1.8-1-2.8-1.2c-1,0-2,0.4-2.8,1.1c-0.8,0.7-1.4,1.6-1.6,2.6c-0.6,2.3-0.4,4.6,0.4,6.8 c0.9,2.4,1.5,4.9,1.9,7.5c0.3,2.7,0.2,5.3-0.3,8c-1.9,10.8-7.6,19.5-10.6,28.1c-1.5,4-2.3,8.3-2.4,12.6c0,3.7,0.5,7.5,1.6,11 c1.6,5.2,4.3,10,7.9,14.1c2.7,2.8,4.4,4.1,4.3,4.2c-0.5-0.2-0.9-0.5-1.3-0.9c-1.2-0.9-2.3-1.9-3.4-3c-3.9-4-6.8-8.8-8.5-14.1 c-1.2-3.7-1.8-7.5-1.9-11.3c0-4.4,0.8-8.8,2.3-13c2.9-8.8,8.6-17.5,10.3-27.9c0.5-2.5,0.6-5.1,0.3-7.6c-0.3-2.5-0.9-4.9-1.8-7.3 c-0.9-2.4-1-5.1-0.4-7.6c0.4-1.3,1.1-2.4,2.1-3.3c0.5-0.5,1.1-0.8,1.7-1c0.6-0.2,1.3-0.3,2-0.3c1.2,0.2,2.4,0.6,3.4,1.2 c1,0.6,1.9,1.5,2.6,2.5c1.3,1.8,2.3,3.7,3.1,5.7c1.4,3.6,2.4,7.3,3.1,11c1,5.4,1.3,11,0.9,16.5c-0.1,1.5-0.3,3-0.6,4.5 C673.9,244.5,673.7,245,673.5,245.5z"></path> <path class="st0" d="M1019.9,460.8c0.9,3.8,2.9,7.2,5.9,9.8c2.9,2.5,6.6,4.1,10.5,4.4c3.9,0.2,7.8-0.6,11.2-2.3 c3.5-1.7,6.5-4.3,8.7-7.5c4.4-6.5,6.2-14.4,4.9-22.2c-1.5-11.2-8.9-21.9-19.7-25.2c-10.8-3.3-24.1,2.6-27.1,13.5l-12.4,17.3 L1019.9,460.8z"></path> <path class="st2" d="M1005.2,426.8c1.2-9.6,0.5-19.3-2.2-28.6c-2.6-9.3-7.1-18-13.1-25.5c-6-7.5-13.5-13.8-22.1-18.4 c-8.5-4.6-17.9-7.4-27.5-8.3c-38.5-3.7-72.7,25-78.4,63.2c-5.1,33.5-9.4,67.3-9.2,79.5c0.5,37.1,22.1,51.5,30.9,55.6 c3.2,1.1,6.4,1.9,9.8,2.4c0,0,0.1,0,0.1,0c0,0,0,0,0.1,0.1c0,0,0,0.1,0,0.1c0,0,0,0.1,0,0.1l-8.2,42.4 c-3.7,27.9,11.8,52.7,39.6,56.8c27.8,4.1,49.7-17.3,54-45.2L1005.2,426.8z"></path> <path class="st0" d="M868.4,430.8c0.6,0.9,5.5-1.7,11.8-0.8c6.3,0.9,10.4,4.7,11.2,4.1c0.4-0.3-0.2-1.7-1.9-3.5 c-2.4-2.3-5.5-3.8-8.8-4.2c-3.3-0.5-6.6,0.1-9.5,1.6C868.8,429.1,868.1,430.4,868.4,430.8z"></path> <path class="st0" d="M924.1,442.9c0.6,0.9,5.5-1.7,11.8-0.8c6.3,0.9,10.4,4.7,11.2,4.1c0.4-0.3-0.2-1.7-2-3.5 c-2.4-2.3-5.5-3.7-8.8-4.2c-3.3-0.5-6.6,0.1-9.5,1.6C924.7,441.2,923.8,442.5,924.1,442.9z"></path> <path class="st0" d="M902.5,472.5c-3.2-1.5-6.5-2.6-9.9-3.3c-1.6-0.4-3-1-3.2-2.1c0.1-1.7,0.7-3.3,1.7-4.6l6.5-11.5 c9.1-16.4,15.9-30,15.3-30.3s-8.6,12.6-17.7,29.1l-6.3,11.6c-1.3,1.8-1.9,4-1.7,6.2c0.2,0.6,0.5,1.1,0.9,1.6 c0.4,0.5,0.9,0.8,1.4,1.1c0.8,0.4,1.7,0.6,2.6,0.8C895.5,471.9,899,472.4,902.5,472.5z"></path> <path class="st3" d="M893.7,547c0,0,23.8,5.5,56.8-8.3c0,0-14.2,30.6-59,19.7L893.7,547z"></path> <path class="st3" d="M902.9,488c1.4-1.3,3.1-2.2,5-2.7c1.9-0.5,3.8-0.5,5.6,0c1.4,0.3,2.6,0.9,3.8,1.8c1.1,0.8,2.1,1.9,2.8,3.1 c0.7,1.2,1,2.5,0.9,3.9c-0.1,1.3-0.6,2.6-1.5,3.7c-1.2,1-2.6,1.6-4.1,1.8c-1.5,0.2-3-0.1-4.4-0.9c-2.8-1.5-5.3-3.5-7.3-5.9 c-0.6-0.6-1.2-1.3-1.5-2.1c-0.2-0.4-0.2-0.8-0.2-1.2c0.1-0.4,0.3-0.8,0.6-1.1"></path> <path class="st0" d="M920.3,479.5c-1-0.2-2,6.6-8.5,10.6c-6.5,4-13.7,2.2-13.9,3.1c-0.2,0.4,1.4,1.6,4.5,2.1c4,0.6,8-0.2,11.5-2.2 c3.3-2,5.7-5.2,6.7-8.9C921.2,481.3,920.7,479.5,920.3,479.5z"></path> <path class="st0" d="M928.5,422.5c0.4,1.8,6.8,1.9,14,3.9s12.9,4.8,14.1,3.4c0.5-0.7-0.3-2.4-2.4-4.4c-2.9-2.5-6.3-4.3-10.1-5.2 c-3.7-1-7.6-1.1-11.3-0.3C929.8,420.5,928.3,421.6,928.5,422.5z"></path> <path class="st0" d="M874.7,411.5c0.9,1.6,5.4,0.7,10.6,1.4c5.2,0.7,9.5,2.3,10.6,1c0.6-0.7,0-2.2-1.7-3.8c-2.3-2-5.2-3.3-8.3-3.6 c-3.1-0.3-6.2,0.2-8.9,1.6C875.1,409.3,874.3,410.7,874.7,411.5z"></path> <path class="st0" d="M854.7,400.8c7.7,11.7,32,4.5,46.7-3.6c7.7,4.9,16.9,6.6,25.9,4.8c8.9-1.8,16.7-7.1,21.8-14.6 c8.4,10.6,25.5,7.2,31.8-4.9c6.3-12.1,2.7-28.7-5.8-39.2c-8.5-10.5-21-15.9-33.4-18.2c-29.3-5.3-61.2,5.9-78.7,32.4 c-8.1,12.2-12.9,28.7-8.1,43.3"></path> <path class="st6" d="M935.7,329.3c0,0.5-6.9-0.8-17.8,1c-14.1,2.3-27,9.3-36.8,19.8c-9.2,11-15.2,24.2-17.5,38.3 c-0.8,5.9-1.1,11.8-0.9,17.8c-0.6-1.5-0.9-3.1-1-4.8c-0.5-4.4-0.4-8.9,0.2-13.2c1.9-14.7,8-28.5,17.5-39.8 c10.1-10.9,23.6-18,38.4-19.9c4.4-0.6,8.8-0.7,13.2-0.2C932.6,328.4,934.2,328.7,935.7,329.3z"></path> <path class="st6" d="M896.1,383.8c-0.4-1.3-0.6-2.8-0.6-4.2c-0.1-3.8,0.3-7.7,1.2-11.4c1.4-6.3,4.1-12.2,7.9-17.3 c3.8-5.2,8.6-9.5,14.1-12.8c5.5-3.3,11.7-5.3,18-6.1c6.4-0.8,12.8-0.3,19,1.5c3.7,1,7.3,2.5,10.6,4.5c1.3,0.7,2.4,1.6,3.4,2.6 c-4.6-2.2-9.4-4-14.4-5.3c-12-3.1-24.7-1.2-35.4,5c-10.7,6.3-18.4,16.5-21.6,28.5C895.7,377.7,896.6,383.8,896.1,383.8z"></path> <path class="st0" d="M966.3,371.1c-2.9,10.4-4.5,21-4.9,31.8c-0.4,10.8,3,21.4,9.5,30.1c10.2,12.3,27.3,16.1,43,19.1 c8.4-21,11-43.9,7.3-66.2c-1.8-10.8-5.3-21.9-12.9-29.8c-5.7-5.6-13-9.2-21-10.1c-7.9-1-15.9,0.7-22.8,4.8"></path> <path class="st0" d="M975,422.4c-4.1,9-3.8,19.3-2.4,29.2c1.4,9.8,3.9,19.5,3.8,29.3c-0.1,9.9-3.2,20.3-11,26.5 c-2.3,1.6-4.5,3.3-6.6,5.3c-1,1-1.7,2.3-1.9,3.7c-0.2,1.4-0.1,2.8,0.5,4.1c1.5,2.4,6,2.3,6.6-0.4l-0.4,0.7c-0.4,0.7-0.6,1.4-0.6,2.2 c0,0.8,0.2,1.5,0.6,2.2c0.4,0.7,0.9,1.2,1.6,1.6c0.7,0.4,1.4,0.6,2.2,0.6c2.7-0.1,5.4-0.8,7.8-2c2.4-1.2,4.6-2.9,6.4-4.9 c5.1-5.9,7.1-13.7,8.4-21.2c4.1-23.4,3.3-47.7,9.8-70.5"></path> <path class="st1" d="M885.2,576c1.8,8,5.3,15.5,10.3,21.9c5,6.5,11.3,11.8,18.5,15.7c7.2,3.8,15.2,6.1,23.3,6.6 c8.2,0.5,16.3-0.8,24-3.7c13.7-5.3,24.8-15.6,35.5-25.7c1.9,11.5,1.4,23.3-1.5,34.5c-2.9,11.3-8.2,21.8-15.5,30.9 c-7.3,9.1-16.4,16.6-26.7,22c-10.3,5.4-21.7,8.5-33.3,9.2c-17.6,1.1-36.4-4.3-47.5-18c-7.7-9.5-10.8-22.2-10.6-34.5 c0.5-12.3,2.9-24.4,6.9-36c3.1-10,8.1-21.2,18.2-24"></path> <path class="st0" d="M1010.9,452.7c10.6,5.7,16.3,17.6,18.3,29.4c2,11.8,1,23.9,1.5,35.7c0.5,11.9,2.8,24.4,10.3,33.7 c8,9.9,20.5,14.5,31.8,20.5c24.7,13.2,45.1,35.9,52.5,62.9c7.4,27.1,0.7,58.3-19.6,77.8c-18.6,17.6-45.3,23.8-70.9,23.8 c-18.2,0-38.2-3.9-49.6-18.2c-11.4-14.2-10.6-34.2-6.6-51.7c4-17.5,11.3-34.6,11.6-52.6c-2.7,11.1-7.5,21.7-14,31.1 c-1.9,2.7-5.1,5.6-7.9,4c-2.9-1.5-2-6.5-0.5-9.8c21.9-48.8,14.3-147.3,27.3-201.2"></path> <path class="st2" d="M992.8,447.1c0.7-0.2,26.3-5.1,23,20.3c-3.3,25.3-28,16.8-28,16.1C987.9,482.8,992.8,447.1,992.8,447.1z"></path> <path class="st3" d="M996.8,474.9c0,0,0.4,0.3,1.1,0.8c1,0.6,2.2,0.8,3.3,0.5c2.8-0.6,5.6-4.6,6.3-9.1c0.3-2.2,0.2-4.4-0.4-6.5 c-0.1-0.8-0.5-1.6-1-2.3c-0.5-0.7-1.2-1.2-1.9-1.5c-0.5-0.2-1-0.2-1.5,0c-0.5,0.2-0.9,0.5-1.2,0.9c-0.4,0.7-0.3,1.2-0.5,1.2 c-0.1,0-0.5-0.5-0.2-1.5c0.2-0.6,0.7-1.1,1.2-1.5c0.4-0.2,0.8-0.4,1.3-0.4c0.5-0.1,0.9,0,1.4,0.1c1,0.3,1.9,0.9,2.6,1.7 s1.2,1.8,1.5,2.8c0.8,2.3,1,4.8,0.6,7.3c-0.8,5.1-4.1,9.5-8,10.1c-0.7,0.1-1.4,0.1-2.1-0.1c-0.7-0.2-1.3-0.6-1.8-1.1 C996.8,475.5,996.7,474.9,996.8,474.9z"></path> <path class="st0" d="M859,630.6c1.2-2.7,2.7-5.3,4.3-7.8c3.7-6.1,6.8-12.6,9.1-19.3c2.3-6.7,3.1-13.9,2.3-21c-0.5-2.9-1.2-5.8-2-8.6 c0.5,0.6,0.9,1.4,1.1,2.1c0.9,2,1.5,4.2,1.9,6.3c1.1,7.2,0.5,14.6-1.9,21.5c-2.4,6.8-5.6,13.3-9.6,19.4c-1.5,2.3-2.6,4.2-3.6,5.4 C859.5,630,859.1,630.7,859,630.6z"></path> <path class="st5" d="M871.9,601.4c-0.4,0-1.1-2.2-3.4-3.7c-2.3-1.5-4.6-1.5-4.6-1.9c-0.1-0.4,0.6-0.5,1.6-0.5c1.4,0,2.7,0.4,3.8,1.2 c1.1,0.8,2,1.9,2.5,3.2C872.2,600.7,872.1,601.3,871.9,601.4z"></path> <path class="st5" d="M888.3,601.3c-2-2.2-4.2-4.3-6.5-6.1c-2.6-1.5-5.4-2.7-8.2-3.6c1.6-0.2,3.2-0.1,4.7,0.3c1.5,0.4,3,1.1,4.2,2.1 C885.3,595.6,887.4,598.3,888.3,601.3z"></path> <path class="st5" d="M898.6,655.1c0.1-3.7,0.6-7.3,1.5-10.8c0.5-3.6,1.5-7.2,2.9-10.6c-0.1,3.7-0.6,7.3-1.5,10.8 C900.9,648.2,900,651.7,898.6,655.1z"></path> <path class="st5" d="M939.9,663.2c-0.7-7.6-0.4-15.3,0.7-22.8C941.3,648,941.1,655.7,939.9,663.2z"></path> <path class="st7" d="M95.9,781L55,958.9l86.4,0.3l39.9-156.5L95.9,781z"></path> <path class="st0" d="M520.2,562.4c-8.2-11-17.6-21.6-22-34.6c-2.1-6.3-2.9-13-5.1-19.2c-2.2-6.3-6.3-12.3-12.5-14.7 c-6.2-2.4-10.9,0-14.9,4.5L436,585l17.1,66.6c17.1-3.8,38.4-8.4,54.4-15.6c16-7.2,26.5-18.7,27.6-36.1 C535.9,586.2,528.4,573.4,520.2,562.4z"></path> <path class="st1" d="M250.4,547c0,0-103.1,44.9-116,65.1c-12.9,20.2-55.3,164.6-55.3,164.6l108.6,31.8l-1.9,150.3h266.3l-2.2-265 l-33.4-146.4c0,0-58.8-3.8-64.3-6.5C346.9,538.2,250.4,547,250.4,547z"></path> <path class="st7" d="M616.7,179.7c0.8-6.1-3.4-12.7-0.3-18.1c2-2.7,4.9-4.7,8.2-5.6c1.6-0.7,3.3-1.1,5.1-1.2c0.9,0,1.7,0.2,2.5,0.7 c0.7,0.5,1.3,1.1,1.7,1.9c0.2,1,0.1,2.1-0.3,3c-0.4,1-1,1.8-1.8,2.5c-1.6,1.3-3,2.8-4,4.6c-0.7,4.4-0.4,8.8,1,13 c3.5,9.3,6.5,18.7,8.8,28.4"></path> <path class="st7" d="M595,181.8c0.4-9.2,8-45.4,8.2-54.6c6.2,1.9,9.8,8.5,11,14.9c1.2,6.4,0.6,13,1.7,19.4c1.5,8.6,6,16.4,10.5,23.9 c4.5,7.5,9.2,15.1,11.3,23.6c2,8.5,9.7,30.5,3.7,36.9"></path> <path class="st7" d="M593.2,243.8l-36.9,175.1c-1.3,7.9-139.7,128.7-139.7,128.7L444,656.7l180.2-176.3c13-13.9,20.1-32.3,19.7-51.4 l-3.1-164.3L593.2,243.8z"></path> <path class="st7" d="M586.9,182.9l6.3,61l47.7,21c0,0,0.6-4.3,2.7-25.4c2.3-23.3-22.8-33.3-33.9-50.3c-4.8-7.3-3.5-20.9-7.2-37.6 c-0.4-1.9-3.1-13.6-4.5-19.9c-0.8-3.5-2.8-6.6-5.7-8.6c-2.2-1.4-4.6-2.1-6.4,0C584.1,125.1,586.9,182.9,586.9,182.9z"></path> <path class="st7" d="M616.7,253.9c5.3-4.6,6.6-12.8,4.6-19.6c-2.4-6.7-6.3-12.8-11.3-17.9c-5-5.1-9.2-10.9-12.4-17.2 c-2-4.6-3-9.6-5.3-14.1c-2.3-4.5-6.3-8.6-11.3-8.8c4,25.2,3.9,39.7,12.1,67.4"></path> <path class="st8" d="M586,205.1c0,0-0.2-0.7-0.5-2c-0.3-1.3-0.8-3.5-1.3-5.8c-1.1-5.3-2.7-12.1-4.2-19.8l-0.2-0.7h0.8 c1.6-0.1,3.3,0.2,4.8,0.8c1.5,0.6,2.9,1.4,4.1,2.6c3.6,3.5,6.2,7.9,7.5,12.7c1.1,3.8,2.5,7.5,4.2,11c1.3,2.3,2.9,4.5,4.7,6.4 c0.7,0.8,1.2,1.6,1.6,2.5c-0.7-0.7-1.4-1.4-2-2.2c-2-1.9-3.7-4-5.1-6.3c-1.9-3.5-3.4-7.3-4.6-11.1c-1.2-4.6-3.7-8.8-7.2-12.1 c-2.1-2-5-3.1-8-3l0.6-0.8C584.5,193.2,586.6,205.1,586,205.1z"></path> <path class="st8" d="M607.4,189.6c-1.9-8.2-3.4-16.5-4.4-24.9c-1.5-8.3-2.5-16.7-3-25.1c1.9,8.2,3.4,16.5,4.4,24.9 C605.9,172.9,606.9,181.2,607.4,189.6z"></path> <path class="st8" d="M622.6,191.7c0,0,0.2,0.3,0.3,0.9h-0.4c-2-5.7-3.6-11.5-4.8-17.3c-1.1-5.1-2-9.8-2.5-13.2 c-0.4-1.8-0.6-3.7-0.5-5.5c0.4,0,2,8.2,4.3,18.6c1.8,8.2,3.5,15.2,3.9,17.5h-0.4C622.6,192,622.6,191.7,622.6,191.7z"></path> <path class="st8" d="M632,225.2c-0.2,0-1.2-1.4-3.1-3.4c-5-5.4-11.9-8.7-19.2-9.3c-1.5,0-3.1-0.1-4.6-0.3c1.5-0.6,3-0.8,4.6-0.7 c3.8,0,7.6,0.9,11,2.6c3.4,1.7,6.5,4.1,8.9,7C630.8,222.3,631.6,223.7,632,225.2z"></path> <path class="st8" d="M597.6,248.6c-1.3-2.3-2.4-4.7-3.2-7.2c-2.2-5.9-4-12-5.5-18.2c-1.5-6.1-2.6-12.3-3.3-18.6 c-0.4-2.6-0.6-5.3-0.5-7.9c0.7,2.5,1.1,5.1,1.4,7.7c0.8,4.7,2,11.3,3.7,18.6c1.7,7.2,3.6,13.6,5.1,18.2 C596.3,243.6,597,246.1,597.6,248.6z"></path> <path class="st1" d="M384.3,550.7c2.4-3.6,6-6.2,10.2-7.2s8.6-0.3,12.4,1.9c19.5-15.9,39.4-31.3,58.8-47.1 c-6.4,31.8-10.6,76.1,3.6,105.2c0,0,17.9,33.3,46.5,28.2l-25.5,25L450.1,694"></path> <path class="st0" d="M378,565.6c0-4.3,1.3-8.4,3.7-12c2-3.8,5.1-6.8,8.9-8.9C384.7,550.4,380.3,557.6,378,565.6z"></path> <path class="st0" d="M399,585.2c-1.1-1.8-1.9-3.7-2.2-5.8c-1.1-4.9-1.3-10-0.4-15s2.8-9.7,5.5-13.9c1.1-1.8,2.4-3.4,4.1-4.7 c0.2,0.2-1.4,2-3.2,5.3c-2.4,4.2-4.1,8.8-5,13.6c-0.8,4.8-0.8,9.7,0,14.5C398.4,582.7,399.2,585,399,585.2z"></path> <path class="st5" d="M496.4,653.2c-2,1.2-4.1,2.1-6.3,2.6c-6.1,1.5-12.5,1.3-18.6-0.6c-8.9-2.8-16.7-8.4-22.3-15.9 c-6.7-9.2-11.2-19.8-13.2-31c-3.7-20.2-4.8-40.8-3.2-61.3c0.6-8,1.5-14.2,2.2-18.5c0.3-2.2,0.7-3.8,0.9-5c0.1-0.6,0.2-1.2,0.4-1.7 c0,0.6,0,1.2-0.2,1.8l-0.6,5c-0.6,4.3-1.3,10.6-1.8,18.6c-1.4,20.4-0.2,40.9,3.6,60.9c2,10.9,6.4,21.3,12.9,30.3 c5.4,7.4,12.9,13,21.6,15.9c5.9,1.9,12.1,2.2,18.2,1C492.1,654.8,494.3,654.1,496.4,653.2z"></path> <path class="st0" d="M188.3,853.3c-0.4,0-0.7-37.7-0.7-84.1c0-46.5,0.3-84.1,0.7-84.1s0.7,37.7,0.7,84.1 C189,815.6,188.7,853.3,188.3,853.3z"></path> <path class="st0" d="M186.2,655.9c-0.3,0-0.2-3.8-1.5-9.6c-0.8-3.4-1.9-6.8-3.3-10c-1.8-3.9-4-7.6-6.5-11c-2.6-3.4-5.6-6.5-8.9-9.2 c-2.7-2.2-5.6-4.2-8.7-5.8c-5.3-2.8-9-3.7-8.9-4c0.9,0,1.8,0.2,2.7,0.5c1,0.2,2,0.6,2.9,1c1.3,0.4,2.6,1,3.8,1.6 c3.2,1.6,6.2,3.5,9,5.7c3.4,2.8,6.5,5.9,9.2,9.4c2.6,3.5,4.9,7.3,6.6,11.4c1.4,3.3,2.5,6.7,3.2,10.3c0.3,1.3,0.5,2.7,0.6,4.1 c0.1,1,0.2,2.1,0.2,3.1C186.4,654.2,186.3,655.1,186.2,655.9z"></path> <path class="st0" d="M367.7,545.9c0.2,0.7,0.4,1.5,0.5,2.3c0.4,2.1,0.6,4.3,0.7,6.5c0.3,8-0.8,16.1-3.3,23.7 c-3.7,11.4-10.4,21.6-19.2,29.7c-11.1,9.7-25.1,15.6-39.8,16.7c-14.7,1.1-29.4-2.5-41.9-10.4c-10-6.7-18-15.8-23.4-26.5 c-3.6-7.2-5.9-15-6.8-22.9c-0.2-2.2-0.3-4.3-0.3-6.5c-0.1-0.8-0.1-1.5,0-2.3c0.1,0.7,0.2,1.5,0.2,2.3c0.1,2.2,0.2,4.3,0.5,6.5 c1.1,7.9,3.5,15.5,7.2,22.6c5.4,10.5,13.4,19.4,23.2,25.9c12.2,7.7,26.6,11.3,41,10.2s28.1-6.8,39.1-16.2c8.8-7.9,15.4-18,19.1-29.1 c2.5-7.5,3.8-15.4,3.7-23.4c0-2.8-0.2-5-0.5-6.5S367.6,545.9,367.7,545.9z"></path> <path class="st5" d="M186,775.8c0,0.4-22-6.5-48.9-15.4c-26.9-8.9-48.6-16.4-48.4-16.7c0.1-0.4,22,6.5,48.9,15.4 C164.5,767.9,186.1,775.4,186,775.8z"></path> <path class="st5" d="M447.5,739c0,0.4-58.4,1-130.5,1.2c-72.1,0.3-130.5,0.2-130.5,0c0-0.2,58.4-1,130.5-1.2 C389.1,738.7,447.5,738.6,447.5,739z"></path> <path class="st5" d="M448.8,762.1c0,0.4-58.8,0.7-131.2,0.7c-72.4,0-131.2-0.3-131.2-0.7c0-0.4,58.7-0.7,131.2-0.7 C390.1,761.4,448.8,761.7,448.8,762.1z"></path> <path class="st0" d="M412.8,790.1c-0.2,0.7-0.4,1.5-0.7,2.1c-0.6,1.5-1.4,3.5-2.4,6l-1.7,4.3c-0.7,1.6-1.5,3.3-2.4,5.1 c-1.7,3.6-3.6,7.8-6.1,12.2l-3.8,6.9c-1.3,2.4-2.9,4.8-4.5,7.3c-3,5.1-6.7,10.3-10.6,15.7c-8.6,11.7-18.1,22.6-28.4,32.9 c-10.4,10.1-21.6,19.3-33.4,27.7c-5.6,3.7-10.8,7.3-15.9,10.3c-2.6,1.5-5,3-7.4,4.3l-7.1,3.7c-4.4,2.4-8.7,4.2-12.3,5.8 c-1.8,0.8-3.5,1.6-5.1,2.3l-4.4,1.7l-6.1,2.3c-0.7,0.3-1.4,0.5-2.2,0.7c0.7-0.4,1.4-0.7,2.1-1l6-2.5l4.3-1.8 c1.6-0.7,3.3-1.5,5.1-2.4c3.6-1.7,7.8-3.5,12.2-6l7-3.7c2.4-1.3,4.8-2.9,7.4-4.4c5.1-2.9,10.3-6.6,15.9-10.3 c23.6-16.7,44.4-37,61.5-60.3c3.8-5.4,7.6-10.6,10.6-15.6c1.6-2.5,3.2-4.9,4.5-7.3l3.8-6.9c2.7-4.3,4.4-8.5,6.2-12.1 c0.9-1.8,1.7-3.4,2.5-5c0.7-1.6,1.3-3,1.9-4.3c1.1-2.5,2-4.5,2.7-5.9C412.2,791.5,412.5,790.8,412.8,790.1z"></path> <g class="st4"> <path d="M402.1,813.1c-17.8,21.7-36.5,37.4-62.6,47.5c-12.5,4.8-25.7,8.1-37.8,13.9c-12.1,5.8-23.6,14.4-29.1,26.7 c-4.2,9.5-2.2,23.9,7.9,25.9c3.9,0.5,7.9-0.1,11.5-1.8c51.8-18.8,85.9-66.2,109.9-112.2"></path> </g> <path class="st0" d="M216.8,341.6c-11.2,8.8-11.9,25.2-11.4,39.4c0.6,14.2,0.7,30.4-9.6,40.2c-8.5,8.1-23.3,11.1-25.8,22.6 c-0.6,2.7-0.4,5.5,0.7,8.1c1.1,2.6,2.9,4.7,5.3,6.2c2.4,1.4,5.1,2.1,7.9,1.9c2.8-0.2,5.4-1.3,7.5-3c-3.6,9-2,20.5,5.7,26.5 c7.7,6,21,3.2,23.8-6.1c-0.4,1.5-0.6,3.1-0.4,4.7c0.2,1.6,0.7,3.1,1.5,4.5c0.8,1.4,1.9,2.6,3.2,3.5c1.3,0.9,2.7,1.6,4.3,2 c1.5,0.4,3.1,0.4,4.7,0.1c1.6-0.3,3.1-0.9,4.4-1.7c1.3-0.9,2.5-2,3.3-3.3c0.9-1.3,1.5-2.8,1.8-4.4"></path> <path class="st0" d="M379.1,444.4c0.5,1.9,1.4,3.6,2.7,5.1c1.2,1.5,2.8,2.7,4.5,3.6c1.7,0.9,3.6,1.4,5.5,1.5 c1.9,0.1,3.9-0.2,5.7-0.8c1.8-0.7,3.5-1.7,4.9-3c1.4-1.3,2.5-2.9,3.3-4.7c0.8-1.8,1.1-3.7,1.1-5.6c0-1.9-0.4-3.8-1.2-5.6 c-2.2-5.5-7.9-9.7-8.1-15.6c-0.3-7.2,7.2-11.9,13.8-14.7c6.6-2.8,14.3-6.5,15.4-13.6c1-7.1-4.9-12.5-9.8-17.4 c-4.9-4.8-9.7-12.2-6.2-18.2c1.8-3,5.3-4.7,7.6-7.4c5.1-5.9,3.1-15.9-2.9-21c-5.9-5.1-14.4-6.2-22.2-5.3c-7.8,0.9-15.2,3.8-22.8,5.7 c-12.6,3-25.7,3.4-38.5,1.2c-12.8-2.3-24.9-7.2-35.7-14.4"></path> <path class="st7" d="M224.4,396.2l27.3,158c1.1,6.6,3.6,12.9,7.1,18.6c3.6,5.7,8.3,10.6,13.8,14.4c5.5,3.9,11.7,6.6,18.2,8 c6.6,1.5,13.3,1.6,19.9,0.4c12.5-2.2,23.7-9.1,31.5-19.2c7.7-10.1,11.4-22.7,10.2-35.4c-1.2-14-2.3-25.6-2.3-25.6 s39.6-10.2,36.2-50.4c-1.7-19.5-8.3-59.2-14.8-95.2c-3.4-18.6-13.6-35.3-28.7-46.7c-15.1-11.4-33.9-16.7-52.7-14.9l-3.9,0.4 c-9.9,1.5-19.3,5-27.8,10.3c-8.5,5.3-15.8,12.2-21.6,20.3c-5.8,8.1-9.9,17.4-12,27.1C222.7,376.3,222.6,386.4,224.4,396.2z"></path> <path class="st0" d="M363,396c0.2,1.5-0.3,3-1.2,4.2c-0.9,1.2-2.3,2-3.8,2.1c-0.7,0.1-1.5,0.1-2.2,0c-0.7-0.2-1.4-0.5-2-0.9 c-0.6-0.4-1.1-1-1.5-1.6c-0.4-0.6-0.6-1.3-0.7-2.1c-0.2-1.5,0.2-3,1.2-4.2c0.9-1.2,2.3-2,3.8-2.1c0.7-0.1,1.5-0.1,2.2,0 c0.7,0.2,1.4,0.5,2,0.9c0.6,0.4,1.1,1,1.5,1.6C362.7,394.6,362.9,395.3,363,396z"></path> <path class="st0" d="M364.8,390.5c-0.6,0.8-5.3-2-11.5-1.4c-6.2,0.6-10.4,4.2-11.2,3.5c-0.3-0.3,0.2-1.7,2.1-3.4 c2.5-2.1,5.6-3.4,8.9-3.7c3.2-0.3,6.4,0.4,9.2,2C364.3,388.8,365.1,390.1,364.8,390.5z"></path> <path class="st0" d="M302.6,403.1c0.2,1.5-0.3,3-1.2,4.2c-0.9,1.2-2.3,1.9-3.8,2.1c-0.7,0.1-1.5,0.1-2.2,0c-0.7-0.2-1.4-0.5-2-0.9 c-0.6-0.4-1.1-1-1.5-1.6c-0.4-0.6-0.6-1.3-0.8-2c-0.2-1.5,0.3-3,1.2-4.2c0.9-1.2,2.3-2,3.8-2.2c0.7-0.1,1.5-0.1,2.2,0.1 c0.7,0.2,1.4,0.5,2,0.9c0.6,0.4,1.1,1,1.5,1.6C302.2,401.6,302.5,402.3,302.6,403.1z"></path> <path class="st0" d="M304.2,397.6c-0.6,0.8-5.3-2-11.5-1.4c-6.2,0.6-10.4,4.2-11.2,3.5c-0.3-0.3,0.2-1.7,2.1-3.4 c2.5-2.1,5.6-3.4,8.9-3.7c3.2-0.3,6.4,0.4,9.2,2C303.7,395.9,304.4,397.2,304.2,397.6z"></path> <path class="st0" d="M331.1,441.2c0-0.4,3.7-1.4,9.8-2.8c1.6-0.3,3-0.8,3.2-1.9c0-1.6-0.6-3.2-1.5-4.6l-5.9-11.6 c-8.1-16.5-14.2-30.1-13.5-30.4c0.7-0.3,7.8,12.8,15.9,29.1l5.6,11.7c1.2,1.8,1.7,4,1.4,6.1c-0.2,0.6-0.5,1.1-0.9,1.6 c-0.4,0.5-0.9,0.8-1.5,1c-0.9,0.3-1.7,0.5-2.6,0.6C337.9,440.9,334.5,441.3,331.1,441.2z"></path> <path class="st0" d="M303.4,373.2c-0.5,1.7-6.7,1.5-13.8,3.1s-12.9,4.1-13.9,2.6c-0.5-0.7,0.3-2.4,2.6-4.2c2.9-2.3,6.4-3.9,10.1-4.7 c3.7-0.8,7.5-0.7,11.1,0.2C302.1,371.2,303.6,372.4,303.4,373.2z"></path> <path class="st0" d="M360.8,372.8c-1,1.5-5.3,0.5-10.6,0.9c-5.3,0.4-9.4,1.9-10.6,0.5c-0.5-0.7,0-2.1,1.8-3.7c2.4-1.9,5.3-3,8.3-3.1 c3-0.2,6,0.5,8.6,2C360.4,370.7,361.2,372.1,360.8,372.8z"></path> <path class="st0" d="M263.7,347.9l-0.2,0.2c-5.9,5.7-9.4,13.4-9.8,21.6c0,0.3,0,0.6,0,0.8c-0.4,11.6,1,23.3,0.4,34.9 c-0.6,11.6-3.4,23.6-11.1,32.4c-3.2,3.6-9.1,6.4-12.3,2.9c-1.1-1.5-1.8-3.3-2-5.1c-4.8-27.5-14.8-51.3-17.5-80.2 c-0.4-3.9,0.1-7.8,1.6-11.4c1.4-3.6,3.7-6.9,6.6-9.4c5.6-5,12.6-10.2,19.6-7.6c7,2.5,17,14.3,22.7,19.1"></path> <path class="st7" d="M239.7,413.1c-0.7-0.2-28.4-5.5-24.9,21.9c3.6,27.4,30.3,18.2,30.3,17.4C245,451.6,239.7,413.1,239.7,413.1z"></path> <path class="st8" d="M235.5,443.1c0,0-0.4,0.4-1.2,0.8c-0.5,0.3-1.1,0.5-1.7,0.6c-0.6,0.1-1.2,0.1-1.8-0.1c-3-0.7-6.1-5-6.8-9.9 c-0.4-2.3-0.2-4.7,0.4-7c0.2-0.9,0.5-1.7,1.1-2.4c0.5-0.7,1.3-1.3,2.1-1.7c0.5-0.2,1.1-0.2,1.7-0.1c0.5,0.2,1,0.5,1.3,1 c0.5,0.7,0.4,1.3,0.5,1.3c0.2,0,0.5-0.5,0.2-1.6c-0.2-0.7-0.7-1.2-1.3-1.6c-0.8-0.4-1.8-0.6-2.7-0.3c-1.1,0.4-2.1,1-2.9,1.9 c-0.8,0.9-1.3,1.9-1.6,3c-0.9,2.6-1.1,5.3-0.7,8c0.9,5.5,4.4,10.3,8.5,10.9c0.8,0.1,1.5,0.1,2.3-0.2c0.7-0.2,1.4-0.6,2-1.1 C235.5,443.8,235.5,443.1,235.5,443.1z"></path> <path class="st0" d="M238.5,331.1c-7.9-10.3,9.2-27.9,22.3-33.5c13.1-5.6,31.7-0.7,45.6,2.4c8.8,2,17.6,5.1,26.5,3.9 c5.9-1.2,11.7-3.2,17-6.1c5.3-2.9,11.2-4.7,17.2-5.3c3-0.2,6.1,0.4,8.8,1.7c2.7,1.4,5,3.5,6.6,6c2.8,5.3,0.3,13.2-5.6,14.7 c1.8-1.2,3.9-2,6.1-2.3c2.2-0.3,4.4,0,6.4,0.8c2.1,0.8,3.9,2,5.3,3.7c1.5,1.6,2.5,3.6,3,5.8c0.5,2.1,0.5,4.4,0,6.5 c-0.5,2.1-1.6,4.1-3,5.7c-1.5,1.6-3.3,2.9-5.3,3.7c-2.1,0.8-4.3,1-6.4,0.8c3.6-3.3,10.1,1,10.1,5.9c0,4.9-4.1,8.9-8.4,11.3 c-11,6.1-24.5,5.8-36.7,3c-12.2-2.8-23.9-8-36-11.1s-32.6-8.9-44-3.6c-8.4,3.9-13.4,14.9-18.5,13.2c-2.4-1-4.6-2.6-6.3-4.6 c-1.7-2-2.9-4.4-3.6-6.9C238.2,341.7,237.9,336.4,238.5,331.1"></path> <path class="st0" d="M240,417.8c0.3,14.6,2,29,5,43.3c3,14.3,9.8,27.5,19.6,38.3c13.2,13.6,30.6,26.5,49.4,29.7 c20.5,3.4,45.7-0.9,62.4-13.2c8-5.9,13.7-18.5,11.2-28.1c3.4-1.6,6.2-4,8.3-7.1c2.1-3.1,3.3-6.7,3.6-10.4c0.4-7.4-4.1-16.7-10-17.7 c4.4-0.7,5.7-7.7,4-11.7c-1.7-3.9-7.5-5.1-11.9-4.3c-4.3,1.1-8.4,3.2-11.8,6.1c-3.4,2.9-7.3,5.2-11.5,6.8c-14.2,4.6-28.6-8-43.5-7.3 c-13.5,0.5-25.5,11.7-38.9,9.9c-3.7-0.7-7.2-2.2-10.3-4.3c-3.1-2.2-5.7-4.9-7.7-8.2c-4.1-6.3-2.3-29.7-3.9-37.1"></path> <g class="st9"> <path class="st6" d="M348.3,480.9c-1.1-0.3-2.2-0.6-3.3-1c-2.6-0.7-5.3-0.9-8-0.4c-2.7,0.5-5.2,1.6-7.3,3.2 c-1.7,1.2-2.6,2.2-2.6,2.1c0-0.1,0.5-1.3,2.1-2.7c2.2-1.9,4.8-3.2,7.7-3.7s5.8-0.2,8.5,0.8C347.3,479.8,348.4,480.7,348.3,480.9z"></path> </g> <path class="st10" d="M319.3,450.4c1-0.2,1.7,6.5,8,10.6c6.3,4.1,13.2,2.8,13.4,3.7c0.1,0.4-1.5,1.5-4.5,1.8 c-3.9,0.5-7.9-0.5-11.2-2.6c-3.2-2.1-5.4-5.4-6.1-9.1C318.2,452.1,318.8,450.4,319.3,450.4z"></path> <path class="st6" d="M299.3,524.6c0.6,0.1,1.2,0.3,1.7,0.6c1.1,0.4,2.8,1,5,1.6c6.2,1.7,12.6,2.7,19.1,3c4.4,0.3,8.8,0.2,13.2-0.3 c5.1-0.5,10.1-1.4,15-2.9c5.4-1.6,10.5-4,15.3-7c5.2-3.1,9.7-7.2,13.2-12c4.3-5.7,6.2-12.8,5.3-19.9v-0.6l0.5-0.2 c3.3-1.5,6.1-3.9,8.3-6.8c1-1.4,1.9-2.9,2.7-4.5c0.6-1.5,1-3.1,1.2-4.8c0.3-3-0.1-6-1.2-8.8c-1.1-2.8-2.9-5.3-5.1-7.2l-0.4-0.3 l0.3-0.4c1.2-1.5,2-3.3,2.3-5.2c0.3-1.9,0.1-3.9-0.6-5.7c-0.5-1.4-1.4-2.6-2.4-3.6c-1-1-2.3-1.8-3.7-2.4c-1.8-0.7-3.7-1-5.5-0.8 c-1.3,0.2-1.9,0.4-2,0.3c0.6-0.3,1.3-0.5,1.9-0.6c2.5-0.4,5.1,0,7.3,1.2c2.2,1.2,4,3.1,5.1,5.5c0.8,1.9,1.1,4.1,0.8,6.1 c-0.3,2.1-1.1,4-2.4,5.7v-0.7c2.4,2.1,4.3,4.7,5.5,7.6c1.2,2.9,1.7,6.1,1.4,9.3c-0.1,1.8-0.6,3.6-1.2,5.3c-0.8,1.7-1.7,3.2-2.8,4.7 c-2.3,3.1-5.3,5.7-8.8,7.3l0.4-0.8c1.1,7.4-0.8,15-5.3,21c-3.7,5-8.3,9.2-13.6,12.4c-4.8,3.1-10.1,5.4-15.6,7 c-5,1.5-10.1,2.5-15.2,2.9c-4.5,0.4-9,0.4-13.5,0c-6.5-0.4-12.9-1.6-19.2-3.5c-1.7-0.5-3.3-1.2-5-1.9 C300.6,525.2,299.9,525,299.3,524.6z"></path> <path class="st6" d="M179.2,454.7c-0.5-0.1-1-0.4-1.4-0.7c-1.2-0.9-2.1-2.1-2.7-3.5c-0.9-2.2-1.1-4.7-0.6-7c0.8-3.1,2.7-5.9,5.3-7.8 c3-2.3,6.4-4.1,10.1-5.3c4.1-1.3,8-2.9,11.7-5c3.9-2.5,7-6.1,8.8-10.4c2-4.6,3.1-9.6,3.1-14.6c0.2-10.4-2.2-20.2-2.4-29.3 c-0.3-9.1,1.3-17.7,5.5-23.4c3.1-4.6,7.8-7.8,13.2-9.1c1.5-0.3,3-0.4,4.5-0.2c0.5,0.1,1,0.2,1.5,0.3c-2-0.1-3.9,0.1-5.9,0.4 c-5.2,1.4-9.7,4.6-12.7,9.1c-3.9,5.6-5.5,13.8-5,22.8c0.5,9,2.7,18.8,2.7,29.4c-0.1,5.2-1.3,10.3-3.4,15.1 c-1.9,4.5-5.2,8.3-9.4,10.9c-3.8,2.1-7.9,3.7-12.1,5c-3.5,1.1-6.8,2.8-9.8,4.9c-2.5,1.7-4.3,4.3-5.1,7.2c-0.6,2.2-0.5,4.5,0.3,6.7 C176.2,452.1,177.5,453.6,179.2,454.7z"></path> <path class="st6" d="M377.9,314.5c0.4-0.2,0.8-0.4,1.2-0.6c0.5-0.2,1-0.4,1.6-0.5c0.7-0.2,1.5-0.4,2.2-0.5c2.5-0.3,5,0,7.3,0.9 c2.3,0.8,4.5,2.2,6.2,4c1.7,2.3,3,5,3.7,7.8c0.7,2.8,0.8,5.8,0.4,8.6c-0.5,3.6-1.8,7-3.6,10.1c-1.9,3.1-4.3,5.8-7.2,7.9 c-6.7,4.9-14.7,7.7-23.1,8c-9,0.4-18-0.6-26.7-2.9c-13.9-3.4-27-9.2-38.8-17.2c-5.1-3.5-10.4-6.6-15.9-9.2c-4.8-2.2-10-3.6-15.4-3.9 c-7.8-0.5-15.5,0.9-22.6,4.2c-5,2.3-7.3,4.3-7.4,4.2c2.2-1.9,4.6-3.5,7.2-4.7c7.1-3.5,15-5.1,22.8-4.7c5.5,0.3,10.9,1.6,15.9,3.8 c5.6,2.7,11,5.8,16.1,9.2c11.8,7.8,24.8,13.5,38.5,16.9c8.6,2.3,17.5,3.3,26.3,3c8.1-0.3,15.8-2.9,22.4-7.6c2.8-2,5.2-4.6,7-7.5 c1.8-2.9,3-6.2,3.6-9.6c0.5-2.8,0.4-5.6-0.2-8.3c-0.6-2.7-1.8-5.3-3.4-7.6c-1.6-1.7-3.6-3.1-5.9-3.9c-2.2-0.9-4.6-1.2-7-1 C381.3,313.6,379.6,314,377.9,314.5z"></path> <path class="st6" d="M363.8,291.2c0,2.1-0.4,4.1-1.2,6.1c-2.3,5.3-6.3,9.6-11.3,12.4c-3.4,2-7.2,3.3-11.1,4c-4.5,0.6-9,0.6-13.5,0 c-9.5-1.2-19.2-4.9-29.5-8.1c-10.3-3.2-20.6-5.1-29.8-3.2c-8.1,1.8-15.4,6-20.9,12.2c-3.8,4.1-6.6,8.9-8.5,14.2 c-1.2,3.8-1.5,6-1.6,5.9c-0.1-0.5-0.1-1.1,0-1.6c0.2-1.5,0.5-3,1-4.5c1.6-5.4,4.5-10.5,8.2-14.7c5.6-6.4,13.1-10.9,21.4-12.8 c9.4-2.1,20.1-0.2,30.4,3.1c10.3,3.2,20,6.9,29.3,8.2c4.3,0.6,8.8,0.6,13.1,0c3.8-0.6,7.4-1.8,10.8-3.7c4.9-2.6,8.9-6.7,11.3-11.7 C362.7,295,363.4,293.1,363.8,291.2z"></path> <path class="st0" d="M564.4,123.4c-0.2,0.3-15.1-11.8-33.3-27.1c-18.2-15.2-32.6-28-32.4-28.1c0.3-0.2,15.1,11.8,33.3,27.1 C550.2,110.6,564.7,123.1,564.4,123.4z"></path> <path class="st0" d="M640,105.3c-0.4,0-1.9-23.5-3.3-52.6c-1.5-29.1-2.4-52.7-2-52.7c0.4,0,1.9,23.5,3.4,52.6 C639.5,81.7,640.4,105.3,640,105.3z"></path> <path class="st0" d="M591.9,88.5c-0.4,0-5-13.2-10.4-30c-5.4-16.8-9.4-30.3-9.1-30.4c0.4-0.1,5,13.2,10.4,30 C588.2,74.8,592.2,88.4,591.9,88.5z"></path> <path class="st0" d="M548.9,148.3c-7-2.5-13.8-5.3-20.4-8.6c-6.8-2.9-13.5-6.2-19.9-9.9c7,2.5,13.8,5.3,20.4,8.6 C535.9,141.3,542.5,144.6,548.9,148.3z"></path> <path class="st0" d="M479.3,117.8c0,0.4-2.3,0.4-4.9,0c-2.7-0.4-4.8-0.9-4.7-1.3c0.1-0.4,2.3-0.4,4.9,0 C477.2,117,479.3,117.5,479.3,117.8z"></path> <path class="st0" d="M574.1,10.9c-0.4,0-0.7-2.1-0.7-4.8c0-2.7,0.3-4.8,0.7-4.8c0.4,0,0.7,2.2,0.7,4.8 C574.8,8.7,574.5,10.9,574.1,10.9z"></path> <path class="st0" d="M733.7,48.3c0.3,0.3-12,14.3-27.3,31.3c-15.3,17-28,30.7-28.4,30.4c-0.3-0.3,12-14.3,27.3-31.3 C720.7,61.6,733.4,48.1,733.7,48.3z"></path> <path class="st0" d="M753.2,29c0.3,0.3-1.1,2.1-3.2,4.1c-2,2-3.8,3.4-4.1,3.1c-0.3-0.3,1.1-2.1,3.2-4.1S752.9,28.7,753.2,29z"></path> <path class="st0" d="M800.4,96.9c-1.1,0.8-2.3,1.5-3.6,2.1c-2.4,1.3-5.8,3.1-10.1,5.3c-8.6,4.3-20.7,10-34.2,15.7 c-13.6,5.6-26.1,10.2-35.3,13.3c-4.6,1.5-8.3,2.6-10.9,3.4c-1.3,0.5-2.7,0.8-4.1,1c1.3-0.6,2.6-1.1,3.9-1.5l10.6-3.8 c9.1-3.3,21.5-8,35.1-13.5c13.6-5.6,25.6-11.2,34.5-15.3l10.3-4.9C797.8,98,799.1,97.4,800.4,96.9z"></path> <path class="st0" d="M761.6,162.1c-2.3,1-4.6,1.8-7,2.3c-4.4,1.2-10.6,2.6-17.4,3.8c-6.8,1.2-13.2,1.9-17.7,2.2 c-2.5,0.3-4.9,0.4-7.4,0.1c2.4-0.6,4.9-0.9,7.3-1.1c4.5-0.6,10.7-1.4,17.6-2.7c6.8-1.2,13-2.4,17.5-3.4 C756.7,162.8,759.2,162.3,761.6,162.1z"></path> <path class="st0" d="M796.9,155.6c-5,0.9-10.2,0.9-15.3,0C786.6,154.7,791.8,154.7,796.9,155.6z"></path> <path class="st11" d="M1253,958.9c0,0.3-275.1,0.5-614.5,0.5S24,959.2,24,958.9c0-0.3,275.1-0.5,614.5-0.5S1253,958.6,1253,958.9z"></path> </svg> 